Chauncy_OpticalMax.ufo
<glyph name="period" format="2">
  <advance width="202"/>
  <unicode hex="002E"/>
  <outline>
    <contour>
      <point x="106" y="-10" type="curve" smooth="yes"/>
      <point x="141" y="-10"/>
      <point x="169" y="19"/>
      <point x="169" y="54" type="curve" smooth="yes"/>
      <point x="169" y="90"/>
      <point x="141" y="117"/>
      <point x="106" y="117" type="curve" smooth="yes"/>
      <point x="71" y="117"/>
      <point x="43" y="90"/>
      <point x="43" y="54" type="curve" smooth="yes"/>
      <point x="43" y="19"/>
      <point x="71" y="-10"/>
    </contour>
  </outline>
</glyph>
<glyph name="A" format="2">
  <advance width="613"/>
  <unicode hex="0041"/>
  <anchor x="342" y="731" name="center"/>
  <outline>
    <contour>
      <point x="161" y="279" type="line"/>
      <point x="154" y="255" type="line"/>
      <point x="425" y="255" type="line"/>
      <point x="419" y="279" type="line"/>
    </contour>
    <contour>
      <point x="179" y="7" type="curve" smooth="yes"/>
      <point x="179" y="10"/>
      <point x="178" y="11"/>
      <point x="170" y="14" type="curve" smooth="yes"/>
      <point x="129" y="29" type="line" smooth="yes"/>
      <point x="106" y="37"/>
      <point x="97" y="56"/>
      <point x="112" y="102" type="curve" smooth="yes"/>
      <point x="290" y="652" type="line" smooth="yes"/>
      <point x="291" y="655"/>
      <point x="292" y="657"/>
      <point x="294" y="657" type="curve" smooth="yes"/>
      <point x="296" y="657"/>
      <point x="298" y="655"/>
      <point x="299" y="651" type="curve" smooth="yes"/>
      <point x="485" y="53" type="line" smooth="yes"/>
      <point x="490" y="38"/>
      <point x="482" y="24"/>
      <point x="468" y="22" type="curve" smooth="yes"/>
      <point x="416" y="15" type="line" smooth="yes"/>
      <point x="410" y="14"/>
      <point x="407" y="12"/>
      <point x="407" y="9" type="curve" smooth="yes"/>
      <point x="407" y="3"/>
      <point x="410" y="0"/>
      <point x="416" y="0" type="curve" smooth="yes"/>
      <point x="610" y="0" type="line" smooth="yes"/>
      <point x="616" y="0"/>
      <point x="620" y="4"/>
      <point x="620" y="10" type="curve" smooth="yes"/>
      <point x="620" y="13"/>
      <point x="617" y="15"/>
      <point x="608" y="16" type="curve" smooth="yes"/>
      <point x="582" y="19"/>
      <point x="575" y="32"/>
      <point x="568" y="55" type="curve" smooth="yes"/>
      <point x="377" y="650" type="line" smooth="yes"/>
      <point x="369" y="674"/>
      <point x="381" y="683"/>
      <point x="395" y="685" type="curve" smooth="yes"/>
      <point x="400" y="686"/>
      <point x="405" y="687"/>
      <point x="405" y="692" type="curve" smooth="yes"/>
      <point x="405" y="697"/>
      <point x="400" y="700"/>
      <point x="394" y="700" type="curve" smooth="yes"/>
      <point x="237" y="700" type="line" smooth="yes"/>
      <point x="232" y="700"/>
      <point x="227" y="696"/>
      <point x="227" y="692" type="curve" smooth="yes"/>
      <point x="227" y="684"/>
      <point x="233" y="682"/>
      <point x="239" y="681" type="curve" smooth="yes"/>
      <point x="257" y="679"/>
      <point x="266" y="666"/>
      <point x="260" y="646" type="curve" smooth="yes"/>
      <point x="83" y="102" type="line" smooth="yes"/>
      <point x="64" y="43"/>
      <point x="41" y="24"/>
      <point x="5" y="14" type="curve" smooth="yes"/>
      <point x="-3" y="12"/>
      <point x="-5" y="9"/>
      <point x="-5" y="6" type="curve" smooth="yes"/>
      <point x="-5" y="2"/>
      <point x="-3" y="0"/>
      <point x="4" y="0" type="curve" smooth="yes"/>
      <point x="170" y="0" type="line" smooth="yes"/>
      <point x="176" y="0"/>
      <point x="179" y="3"/>
    </contour>
  </outline>
</glyph>
<glyph name="C" format="2">
  <advance width="637"/>
  <unicode hex="0043"/>
  <anchor x="345" y="775" name="center"/>
  <outline>
    <contour>
      <point x="499" y="-15"/>
      <point x="612" y="83"/>
      <point x="612" y="168" type="curve" smooth="yes"/>
      <point x="612" y="173"/>
      <point x="610" y="176"/>
      <point x="607" y="176" type="curve" smooth="yes"/>
      <point x="605" y="176"/>
      <point x="602" y="174"/>
      <point x="600" y="169" type="curve" smooth="yes"/>
      <point x="574.636150324216" y="88.85023502452277"/>
      <point x="506" y="42"/>
      <point x="400" y="42" type="curve" smooth="yes"/>
      <point x="229" y="42"/>
      <point x="112" y="166"/>
      <point x="112" y="376" type="curve" smooth="yes"/>
      <point x="112" y="574"/>
      <point x="217.09349593495935" y="692.0"/>
      <point x="363" y="692" type="curve" smooth="yes"/>
      <point x="470" y="692"/>
      <point x="546" y="633"/>
      <point x="604" y="520" type="curve" smooth="yes"/>
      <point x="608" y="512"/>
      <point x="610" y="512"/>
      <point x="613" y="512" type="curve" smooth="yes"/>
      <point x="617" y="512"/>
      <point x="620" y="516"/>
      <point x="620" y="522" type="curve" smooth="yes"/>
      <point x="620" y="526"/>
      <point x="620" y="528"/>
      <point x="617" y="538" type="curve" smooth="yes"/>
      <point x="565" y="704" type="line" smooth="yes"/>
      <point x="562" y="712"/>
      <point x="559" y="715"/>
      <point x="554" y="715" type="curve" smooth="yes"/>
      <point x="545" y="715"/>
      <point x="518" y="681"/>
      <point x="502" y="681" type="curve" smooth="yes"/>
      <point x="486" y="681"/>
      <point x="437.37735849056605" y="713.0"/>
      <point x="365" y="713" type="curve" smooth="yes"/>
      <point x="172" y="713"/>
      <point x="30" y="558"/>
      <point x="30" y="338" type="curve" smooth="yes"/>
      <point x="30" y="130"/>
      <point x="155" y="-15"/>
      <point x="350" y="-15" type="curve" smooth="yes"/>
    </contour>
  </outline>
</glyph>
<glyph name="D" format="2">
  <advance width="668"/>
  <unicode hex="0044"/>
  <outline>
    <contour>
      <point x="21" y="7" type="curve" smooth="yes"/>
      <point x="21.0" y="2.333333333333334"/>
      <point x="24" y="0"/>
      <point x="30" y="0" type="curve" smooth="yes"/>
      <point x="311" y="0" type="line" smooth="yes"/>
      <point x="500.5398773006135" y="0"/>
      <point x="645.0" y="132.25249169435216"/>
      <point x="645" y="311" type="curve" smooth="yes"/>
      <point x="645.0" y="539.1353383458646"/>
      <point x="473.7301587301587" y="700"/>
      <point x="255" y="700" type="curve" smooth="yes"/>
      <point x="52" y="700" type="line" smooth="yes"/>
      <point x="30" y="700"/>
      <point x="21.0" y="697.1578947368421"/>
      <point x="21" y="691" type="curve" smooth="yes"/>
      <point x="21.0" y="686.6923076923077"/>
      <point x="25" y="686"/>
      <point x="32" y="684" type="curve" smooth="yes"/>
      <point x="87" y="671" type="line" smooth="yes"/>
      <point x="102.1774132562996" y="667.4126114121474"/>
      <point x="111" y="660"/>
      <point x="111" y="644" type="curve" smooth="yes"/>
      <point x="111" y="57" type="line" smooth="yes"/>
      <point x="111.0" y="37.0"/>
      <point x="100" y="27"/>
      <point x="76" y="23" type="curve" smooth="yes"/>
      <point x="31" y="15" type="line" smooth="yes"/>
      <point x="26" y="14"/>
      <point x="21.0" y="12.333333333333332"/>
    </contour>
    <contour>
      <point x="311" y="22" type="curve" smooth="yes"/>
      <point x="237" y="22" type="line" smooth="yes"/>
      <point x="207" y="22"/>
      <point x="190" y="35.83870967741936"/>
      <point x="190" y="61" type="curve" smooth="yes"/>
      <point x="190" y="646" type="line" smooth="yes"/>
      <point x="190" y="669"/>
      <point x="198" y="680"/>
      <point x="218" y="680" type="curve" smooth="yes"/>
      <point x="255" y="680" type="line" smooth="yes"/>
      <point x="441.30612244897964" y="680"/>
      <point x="561.0" y="543.0"/>
      <point x="561" y="331" type="curve" smooth="yes"/>
      <point x="561.0" y="143.0"/>
      <point x="455.6280991735537" y="22"/>
    </contour>
  </outline>
</glyph>
<glyph name="H" format="2">
  <advance width="677"/>
  <unicode hex="0048"/>
  <outline>
    <contour>
      <point x="148" y="344" type="line"/>
      <point x="148" y="321" type="line"/>
      <point x="532" y="321" type="line"/>
      <point x="532" y="344" type="line"/>
    </contour>
    <component base="I" xOffset="-1"/>
    <component base="I" xOffset="378"/>
  </outline>
</glyph>
<glyph name="I" format="2">
  <advance width="309"/>
  <unicode hex="0049"/>
  <outline>
    <contour>
      <point x="199" y="50" type="curve" smooth="yes"/>
      <point x="199" y="641" type="line" smooth="yes"/>
      <point x="199" y="659"/>
      <point x="205" y="667"/>
      <point x="221" y="671" type="curve" smooth="yes"/>
      <point x="281" y="686" type="line" smooth="yes"/>
      <point x="286" y="687"/>
      <point x="289" y="689"/>
      <point x="289" y="693" type="curve" smooth="yes"/>
      <point x="289" y="698"/>
      <point x="285.0" y="700.0"/>
      <point x="278" y="700" type="curve" smooth="yes"/>
      <point x="31" y="700" type="line" smooth="yes"/>
      <point x="23" y="700"/>
      <point x="20" y="698"/>
      <point x="20" y="693" type="curve" smooth="yes"/>
      <point x="20" y="689"/>
      <point x="23" y="687"/>
      <point x="28" y="686" type="curve" smooth="yes"/>
      <point x="88" y="671" type="line" smooth="yes"/>
      <point x="103" y="667"/>
      <point x="110" y="659"/>
      <point x="110" y="641" type="curve" smooth="yes"/>
      <point x="110" y="50" type="line" smooth="yes"/>
      <point x="110" y="35"/>
      <point x="103" y="28"/>
      <point x="87" y="25" type="curve" smooth="yes"/>
      <point x="30" y="15" type="line" smooth="yes"/>
      <point x="23" y="14"/>
      <point x="20" y="12"/>
      <point x="20" y="7" type="curve" smooth="yes"/>
      <point x="20" y="2"/>
      <point x="22" y="0"/>
      <point x="29" y="0" type="curve" smooth="yes"/>
      <point x="280" y="0" type="line" smooth="yes"/>
      <point x="286.0" y="0.0"/>
      <point x="289" y="2"/>
      <point x="289" y="7" type="curve" smooth="yes"/>
      <point x="289" y="11"/>
      <point x="286" y="13"/>
      <point x="281" y="14" type="curve" smooth="yes"/>
      <point x="221" y="25" type="line" smooth="yes"/>
      <point x="205" y="28"/>
      <point x="199" y="35"/>
    </contour>
  </outline>
</glyph>
<glyph name="J" format="2">
  <advance width="390"/>
  <unicode hex="004A"/>
  <anchor x="232" y="732" name="center"/>
  <outline>
    <contour>
      <point x="313" y="142" type="curve" smooth="yes"/>
      <point x="313" y="170"/>
      <point x="306" y="192"/>
      <point x="294" y="223" type="curve" smooth="yes"/>
      <point x="283" y="251"/>
      <point x="281.0" y="276.0"/>
      <point x="281" y="303" type="curve" smooth="yes"/>
      <point x="281" y="633" type="line" smooth="yes"/>
      <point x="281" y="656"/>
      <point x="290" y="668"/>
      <point x="308" y="673" type="curve" smooth="yes"/>
      <point x="352" y="686" type="line" smooth="yes"/>
      <point x="358" y="688"/>
      <point x="361" y="690"/>
      <point x="361" y="694" type="curve" smooth="yes"/>
      <point x="361" y="698"/>
      <point x="358" y="700"/>
      <point x="350" y="700" type="curve" smooth="yes"/>
      <point x="115" y="700" type="line" smooth="yes"/>
      <point x="107" y="700"/>
      <point x="104" y="698"/>
      <point x="104" y="693" type="curve" smooth="yes"/>
      <point x="104" y="689"/>
      <point x="107" y="688"/>
      <point x="115" y="686" type="curve" smooth="yes"/>
      <point x="176" y="673" type="line" smooth="yes"/>
      <point x="194" y="669"/>
      <point x="202" y="658"/>
      <point x="202" y="635" type="curve" smooth="yes"/>
      <point x="202" y="281" type="line" smooth="yes"/>
      <point x="202.0" y="253.0"/>
      <point x="208" y="217"/>
      <point x="226" y="189" type="curve" smooth="yes"/>
      <point x="250" y="153"/>
      <point x="261" y="127"/>
      <point x="261" y="97" type="curve" smooth="yes"/>
      <point x="261" y="39"/>
      <point x="221" y="6"/>
      <point x="159" y="6" type="curve" smooth="yes"/>
      <point x="115" y="6"/>
      <point x="100" y="31"/>
      <point x="100" y="69" type="curve" smooth="yes"/>
      <point x="100" y="97" type="line" smooth="yes"/>
      <point x="100" y="125"/>
      <point x="86" y="146"/>
      <point x="57" y="146" type="curve" smooth="yes"/>
      <point x="27" y="146"/>
      <point x="12" y="123"/>
      <point x="12" y="89" type="curve" smooth="yes"/>
      <point x="12" y="32"/>
      <point x="59" y="-10"/>
      <point x="144" y="-10" type="curve" smooth="yes"/>
      <point x="248" y="-10"/>
      <point x="313" y="50"/>
    </contour>
  </outline>
</glyph>
<glyph name="K" format="2">
  <advance width="628"/>
  <unicode hex="004B"/>
  <outline>
    <contour>
      <point x="144" y="201" type="line"/>
      <point x="153" y="189" type="line"/>
      <point x="514" y="604" type="line" smooth="yes"/>
      <point x="547" y="642"/>
      <point x="587" y="675"/>
      <point x="625" y="685" type="curve" smooth="yes"/>
      <point x="630" y="686"/>
      <point x="633.0" y="689.0"/>
      <point x="633" y="694" type="curve" smooth="yes"/>
      <point x="632" y="698"/>
      <point x="631" y="700"/>
      <point x="624" y="700" type="curve" smooth="yes"/>
      <point x="451" y="700" type="line" smooth="yes"/>
      <point x="445" y="700"/>
      <point x="440.0" y="697"/>
      <point x="440" y="692" type="curve" smooth="yes"/>
      <point x="440.0" y="687"/>
      <point x="443" y="685"/>
      <point x="449" y="683" type="curve" smooth="yes"/>
      <point x="490" y="668" type="line" smooth="yes"/>
      <point x="502" y="664"/>
      <point x="510" y="655"/>
      <point x="510.0" y="645" type="curve" smooth="yes"/>
      <point x="510.0" y="635.0"/>
      <point x="506" y="625"/>
      <point x="495" y="612" type="curve" smooth="yes"/>
    </contour>
    <contour>
      <point x="280" y="341" type="line"/>
      <point x="468" y="69" type="line" smooth="yes"/>
      <point x="477" y="55"/>
      <point x="483" y="49"/>
      <point x="483" y="35" type="curve" smooth="yes"/>
      <point x="483" y="28"/>
      <point x="477" y="21"/>
      <point x="462" y="18" type="curve" smooth="yes"/>
      <point x="451" y="16"/>
      <point x="445" y="13"/>
      <point x="445" y="8" type="curve" smooth="yes"/>
      <point x="445" y="3"/>
      <point x="449" y="0"/>
      <point x="456" y="0" type="curve" smooth="yes"/>
      <point x="617" y="0" type="line" smooth="yes"/>
      <point x="627" y="0"/>
      <point x="631" y="3"/>
      <point x="631" y="8" type="curve" smooth="yes"/>
      <point x="631" y="14"/>
      <point x="628" y="15"/>
      <point x="615" y="19" type="curve" smooth="yes"/>
      <point x="594" y="25"/>
      <point x="579" y="36"/>
      <point x="561" y="62" type="curve" smooth="yes"/>
      <point x="323" y="398" type="line"/>
    </contour>
    <component base="I"/>
  </outline>
</glyph>
<glyph name="O" format="2">
  <advance width="687"/>
  <unicode hex="004F"/>
  <outline>
    <contour>
      <point x="354" y="710" type="curve" smooth="yes"/>
      <point x="165" y="710"/>
      <point x="30" y="553"/>
      <point x="30" y="334" type="curve" smooth="yes"/>
      <point x="30" y="136"/>
      <point x="159" y="-10"/>
      <point x="334" y="-10" type="curve" smooth="yes"/>
      <point x="524" y="-10"/>
      <point x="657" y="150"/>
      <point x="657" y="375" type="curve" smooth="yes"/>
      <point x="657" y="565"/>
      <point x="531" y="710"/>
    </contour>
    <contour>
      <point x="449.0" y="682.0"/>
      <point x="572.0" y="546.3700564971751"/>
      <point x="572" y="321" type="curve" smooth="yes"/>
      <point x="572.0" y="117.92491467576792"/>
      <point x="482.0" y="22.0"/>
      <point x="362" y="22" type="curve" smooth="yes"/>
      <point x="240.0" y="22.0"/>
      <point x="115" y="152"/>
      <point x="115" y="384" type="curve" smooth="yes"/>
      <point x="115.0" y="576.5223367697595"/>
      <point x="205.0" y="682.0"/>
      <point x="319" y="682.0" type="curve" smooth="yes"/>
    </contour>
  </outline>
</glyph>
<glyph name="S" format="2">
  <advance width="517"/>
  <unicode hex="0053"/>
  <outline>
    <contour>
      <point x="276" y="-10" type="curve" smooth="yes"/>
      <point x="402" y="-10"/>
      <point x="476" y="72"/>
      <point x="476" y="176" type="curve" smooth="yes"/>
      <point x="476" y="264"/>
      <point x="429" y="322"/>
      <point x="288" y="372" type="curve" smooth="yes"/>
      <point x="145" y="424"/>
      <point x="103" y="467"/>
      <point x="103" y="547" type="curve" smooth="yes"/>
      <point x="103" y="627"/>
      <point x="162" y="684"/>
      <point x="244" y="684" type="curve" smooth="yes"/>
      <point x="338" y="684"/>
      <point x="404" y="628"/>
      <point x="466" y="508" type="curve" smooth="yes"/>
      <point x="470" y="501"/>
      <point x="474" y="498"/>
      <point x="479" y="498" type="curve" smooth="yes"/>
      <point x="484" y="498"/>
      <point x="487" y="502"/>
      <point x="487" y="507" type="curve" smooth="yes"/>
      <point x="487" y="513"/>
      <point x="486" y="519"/>
      <point x="485" y="523" type="curve" smooth="yes"/>
      <point x="436" y="695" type="line" smooth="yes"/>
      <point x="433" y="704"/>
      <point x="428" y="708"/>
      <point x="422" y="708" type="curve" smooth="yes"/>
      <point x="407" y="708"/>
      <point x="386" y="685"/>
      <point x="370" y="685" type="curve" smooth="yes"/>
      <point x="344" y="685"/>
      <point x="311" y="709"/>
      <point x="246" y="709" type="curve" smooth="yes"/>
      <point x="126" y="709"/>
      <point x="39" y="620"/>
      <point x="39" y="510" type="curve" smooth="yes"/>
      <point x="39" y="414"/>
      <point x="92" y="353"/>
      <point x="233" y="308" type="curve" smooth="yes"/>
      <point x="371" y="264"/>
      <point x="411" y="219"/>
      <point x="411" y="144" type="curve" smooth="yes"/>
      <point x="411" y="64"/>
      <point x="361" y="14"/>
      <point x="283" y="14" type="curve" smooth="yes"/>
      <point x="188" y="14"/>
      <point x="123" y="65"/>
      <point x="77" y="204" type="curve" smooth="yes"/>
      <point x="74" y="213"/>
      <point x="70" y="216"/>
      <point x="66" y="216" type="curve" smooth="yes"/>
      <point x="62" y="216"/>
      <point x="60" y="211"/>
      <point x="61" y="202" type="curve" smooth="yes"/>
      <point x="90" y="1" type="line" smooth="yes"/>
      <point x="91" y="-5"/>
      <point x="95" y="-10"/>
      <point x="102" y="-10" type="curve" smooth="yes"/>
      <point x="114" y="-10"/>
      <point x="137" y="27"/>
      <point x="149" y="27" type="curve" smooth="yes"/>
      <point x="163" y="27"/>
      <point x="195" y="-10"/>
    </contour>
  </outline>
</glyph>
<glyph name="T" format="2">
  <advance width="596"/>
  <unicode hex="0054"/>
  <outline>
    <contour>
      <point x="119" y="700" type="line" smooth="yes"/>
      <point x="99.9531864982741" y="700.0"/>
      <point x="83.85387058125379" y="727.0"/>
      <point x="63" y="727" type="curve" smooth="yes"/>
      <point x="48" y="727"/>
      <point x="42" y="720"/>
      <point x="37" y="702" type="curve" smooth="yes"/>
      <point x="2" y="573" type="line" smooth="yes"/>
      <point x="-4" y="551"/>
      <point x="5" y="541"/>
      <point x="16" y="541" type="curve" smooth="yes"/>
      <point x="31" y="541"/>
      <point x="41" y="548"/>
      <point x="59" y="572" type="curve" smooth="yes"/>
      <point x="99" y="626"/>
      <point x="143" y="654"/>
      <point x="187" y="654" type="curve" smooth="yes"/>
      <point x="245" y="654" type="line"/>
      <point x="245" y="104" type="line" smooth="yes"/>
      <point x="245" y="74"/>
      <point x="234" y="57"/>
      <point x="208" y="52" type="curve" smooth="yes"/>
      <point x="179" y="47" type="line" smooth="yes"/>
      <point x="157" y="42"/>
      <point x="146" y="35"/>
      <point x="146" y="21" type="curve" smooth="yes"/>
      <point x="146" y="7"/>
      <point x="159" y="0"/>
      <point x="177" y="0" type="curve" smooth="yes"/>
      <point x="418" y="0" type="line" smooth="yes"/>
      <point x="437" y="0"/>
      <point x="449" y="7"/>
      <point x="449" y="21" type="curve" smooth="yes"/>
      <point x="449" y="35"/>
      <point x="439" y="42"/>
      <point x="416" y="47" type="curve" smooth="yes"/>
      <point x="387" y="52" type="line" smooth="yes"/>
      <point x="361" y="57"/>
      <point x="350" y="74"/>
      <point x="350" y="104" type="curve" smooth="yes"/>
      <point x="350" y="654" type="line"/>
      <point x="409" y="654" type="line" smooth="yes"/>
      <point x="453" y="654"/>
      <point x="496" y="626"/>
      <point x="536" y="572" type="curve" smooth="yes"/>
      <point x="554" y="548"/>
      <point x="564" y="541"/>
      <point x="579" y="541" type="curve" smooth="yes"/>
      <point x="591" y="541"/>
      <point x="599" y="551"/>
      <point x="593" y="573" type="curve" smooth="yes"/>
      <point x="558" y="702" type="line" smooth="yes"/>
      <point x="553" y="720"/>
      <point x="548" y="727"/>
      <point x="532" y="727" type="curve" smooth="yes"/>
      <point x="512.0" y="727.0"/>
      <point x="494.0" y="700.0"/>
      <point x="476" y="700" type="curve"/>
    </contour>
  </outline>
</glyph>
<glyph name="U" format="2">
  <advance width="619"/>
  <unicode hex="0055"/>
  <anchor x="355" y="730" name="center"/>
  <outline>
    <contour>
      <point x="521" y="293" type="line" smooth="yes"/>
      <point x="522" y="265"/>
      <point x="525.0" y="239.0"/>
      <point x="525" y="190" type="curve" smooth="yes"/>
      <point x="525.0" y="90.25974025974025"/>
      <point x="462.4850299401198" y="30.0"/>
      <point x="351" y="30" type="curve" smooth="yes"/>
      <point x="236.3842105263158" y="30.0"/>
      <point x="168.0" y="92.02010050251256"/>
      <point x="168" y="217" type="curve" smooth="yes"/>
      <point x="168.0" y="241"/>
      <point x="168" y="277"/>
      <point x="171" y="318" type="curve" smooth="yes"/>
      <point x="192" y="646" type="line" smooth="yes"/>
      <point x="193" y="661"/>
      <point x="197" y="668"/>
      <point x="209" y="671" type="curve" smooth="yes"/>
      <point x="270" y="687" type="line" smooth="yes"/>
      <point x="275" y="688"/>
      <point x="277" y="690"/>
      <point x="277" y="694" type="curve" smooth="yes"/>
      <point x="277" y="698"/>
      <point x="275" y="700"/>
      <point x="269" y="700" type="curve" smooth="yes"/>
      <point x="26" y="700" type="line" smooth="yes"/>
      <point x="21.0" y="700.0"/>
      <point x="19" y="698"/>
      <point x="19" y="694" type="curve" smooth="yes"/>
      <point x="19" y="691"/>
      <point x="21" y="690"/>
      <point x="26" y="688" type="curve" smooth="yes"/>
      <point x="81" y="671" type="line" smooth="yes"/>
      <point x="92" y="668"/>
      <point x="99" y="661"/>
      <point x="98" y="646" type="curve" smooth="yes"/>
      <point x="77" y="318" type="line" smooth="yes"/>
      <point x="75" y="285"/>
      <point x="69.0" y="221"/>
      <point x="69" y="191" type="curve" smooth="yes"/>
      <point x="69.0" y="76.66055045871559"/>
      <point x="153.61176470588236" y="-15.0"/>
      <point x="317" y="-15" type="curve" smooth="yes"/>
      <point x="479.7878787878788" y="-15.0"/>
      <point x="555.0" y="75.6532663316583"/>
      <point x="555" y="190" type="curve" smooth="yes"/>
      <point x="555.0" y="227.0"/>
      <point x="552" y="262"/>
      <point x="550" y="298" type="curve" smooth="yes"/>
      <point x="532" y="634" type="line" smooth="yes"/>
      <point x="531" y="647"/>
      <point x="538" y="659"/>
      <point x="551" y="664" type="curve" smooth="yes"/>
      <point x="601" y="685" type="line" smooth="yes"/>
      <point x="611" y="689"/>
      <point x="614" y="690"/>
      <point x="614" y="695" type="curve" smooth="yes"/>
      <point x="614" y="698"/>
      <point x="610.0" y="700.0"/>
      <point x="605" y="700" type="curve" smooth="yes"/>
      <point x="423" y="700" type="line" smooth="yes"/>
      <point x="416" y="700"/>
      <point x="411" y="698"/>
      <point x="411" y="693" type="curve" smooth="yes"/>
      <point x="411" y="689"/>
      <point x="414" y="686"/>
      <point x="420" y="684" type="curve" smooth="yes"/>
      <point x="479" y="664" type="line" smooth="yes"/>
      <point x="498" y="657"/>
      <point x="503" y="648"/>
      <point x="504" y="634" type="curve" smooth="yes"/>
    </contour>
  </outline>
</glyph>
<glyph name="a" format="2">
  <advance width="420"/>
  <unicode hex="0061"/>
  <anchor x="231.0" y="476" name="center"/>
  <outline>
    <contour>
      <point x="42" y="325" type="curve" smooth="yes"/>
      <point x="42" y="292"/>
      <point x="62" y="274"/>
      <point x="90" y="274" type="curve" smooth="yes"/>
      <point x="119" y="274"/>
      <point x="143" y="295"/>
      <point x="143" y="327" type="curve" smooth="yes"/>
      <point x="143" y="354" type="line" smooth="yes"/>
      <point x="143" y="398"/>
      <point x="168" y="422"/>
      <point x="211" y="422" type="curve" smooth="yes"/>
      <point x="260" y="422"/>
      <point x="284" y="375"/>
      <point x="284" y="292" type="curve" smooth="yes"/>
      <point x="284" y="70" type="line" smooth="yes"/>
      <point x="284" y="15"/>
      <point x="315" y="-9"/>
      <point x="360" y="-9" type="curve" smooth="yes"/>
      <point x="394" y="-9"/>
      <point x="419" y="14"/>
      <point x="419" y="29" type="curve" smooth="yes"/>
      <point x="419" y="30"/>
      <point x="418" y="32"/>
      <point x="416" y="32" type="curve" smooth="yes"/>
      <point x="411" y="32"/>
      <point x="407" y="26"/>
      <point x="394" y="26" type="curve" smooth="yes"/>
      <point x="377" y="26"/>
      <point x="365" y="37"/>
      <point x="365" y="58" type="curve" smooth="yes"/>
      <point x="365" y="309" type="line" smooth="yes"/>
      <point x="365" y="393"/>
      <point x="315" y="440"/>
      <point x="222" y="440" type="curve" smooth="yes"/>
      <point x="111" y="440"/>
      <point x="42" y="377"/>
    </contour>
    <contour>
      <point x="307" y="172" type="curve"/>
      <point x="313" y="183" type="line"/>
      <point x="283" y="198"/>
      <point x="252" y="208"/>
      <point x="194" y="208" type="curve" smooth="yes"/>
      <point x="86" y="208"/>
      <point x="25" y="155"/>
      <point x="25" y="94" type="curve" smooth="yes"/>
      <point x="25" y="32"/>
      <point x="76" y="-10"/>
      <point x="148" y="-10" type="curve" smooth="yes"/>
      <point x="212.78527607361963" y="-10.0"/>
      <point x="269" y="21"/>
      <point x="308" y="70" type="curve"/>
      <point x="299" y="79" type="line"/>
      <point x="273.08781666942724" y="46.32811667014739"/>
      <point x="236.72916666666666" y="29.0"/>
      <point x="201" y="29" type="curve" smooth="yes"/>
      <point x="152.1904761904762" y="29.0"/>
      <point x="119.0" y="61.093333333333334"/>
      <point x="119" y="112" type="curve" smooth="yes"/>
      <point x="119" y="159"/>
      <point x="153" y="194"/>
      <point x="211" y="194" type="curve" smooth="yes"/>
      <point x="248" y="194"/>
      <point x="280" y="186"/>
    </contour>
  </outline>
</glyph>
<glyph name="b" format="2">
  <advance width="560"/>
  <unicode hex="0062"/>
  <outline>
    <contour>
      <point x="4" y="614" type="curve" smooth="yes"/>
      <point x="33" y="614" type="line" smooth="yes"/>
      <point x="55" y="614"/>
      <point x="70.0" y="603.0"/>
      <point x="70" y="578" type="curve" smooth="yes"/>
      <point x="70" y="14" type="line" smooth="yes"/>
      <point x="70" y="-2"/>
      <point x="78" y="-10"/>
      <point x="90" y="-10" type="curve" smooth="yes"/>
      <point x="102" y="-10"/>
      <point x="110" y="-7"/>
      <point x="122" y="1" type="curve" smooth="yes"/>
      <point x="161" y="26" type="line" smooth="yes"/>
      <point x="161" y="685" type="line" smooth="yes"/>
      <point x="161.0" y="702.0"/>
      <point x="154" y="715"/>
      <point x="142" y="715" type="curve" smooth="yes"/>
      <point x="122" y="715"/>
      <point x="107" y="707"/>
      <point x="84" y="694" type="curve" smooth="yes"/>
      <point x="17" y="657" type="line" smooth="yes"/>
      <point x="-8" y="643"/>
      <point x="-12" y="634"/>
      <point x="-12" y="627" type="curve" smooth="yes"/>
      <point x="-12" y="619"/>
      <point x="-7" y="614"/>
    </contour>
    <contour>
      <point x="131.0" y="348.0" type="line"/>
      <point x="178.0" y="392.0"/>
      <point x="219.0" y="408.0"/>
      <point x="263.0" y="408.0" type="curve" smooth="yes"/>
      <point x="364.0" y="408.0"/>
      <point x="435.0" y="333.0"/>
      <point x="435.0" y="217.0" type="curve" smooth="yes"/>
      <point x="435.0" y="105.0"/>
      <point x="369.0" y="35.0"/>
      <point x="281.0" y="35.0" type="curve" smooth="yes"/>
      <point x="217.0" y="35.0"/>
      <point x="170.0" y="58.0"/>
      <point x="139.0" y="107.0" type="curve"/>
      <point x="104.0" y="77.0" type="line"/>
      <point x="149.0" y="14.0"/>
      <point x="204.0" y="-14.0"/>
      <point x="282.0" y="-14.0" type="curve" smooth="yes"/>
      <point x="418.0" y="-14.0"/>
      <point x="529.0" y="98.0"/>
      <point x="529.0" y="252.0" type="curve" smooth="yes"/>
      <point x="529.0" y="386.0"/>
      <point x="442.0" y="480.0"/>
      <point x="333.0" y="480.0" type="curve" smooth="yes"/>
      <point x="243.0" y="480.0"/>
      <point x="184.0" y="443.0"/>
      <point x="112.0" y="366.0" type="curve"/>
    </contour>
  </outline>
</glyph>
<glyph name="c" format="2">
  <advance width="365"/>
  <unicode hex="0063"/>
  <anchor x="246" y="484" name="center"/>
  <outline>
    <contour>
      <point x="358" y="340" type="curve" smooth="yes"/>
      <point x="358" y="399"/>
      <point x="309" y="440"/>
      <point x="224" y="440" type="curve" smooth="yes"/>
      <point x="110" y="440"/>
      <point x="18" y="338"/>
      <point x="18" y="202" type="curve" smooth="yes"/>
      <point x="18" y="73"/>
      <point x="91" y="-10"/>
      <point x="203" y="-10" type="curve" smooth="yes"/>
      <point x="300" y="-10"/>
      <point x="353" y="56"/>
      <point x="353" y="116" type="curve" smooth="yes"/>
      <point x="353" y="120"/>
      <point x="352" y="122"/>
      <point x="349" y="122" type="curve" smooth="yes"/>
      <point x="346" y="122"/>
      <point x="345" y="120"/>
      <point x="344" y="116" type="curve" smooth="yes"/>
      <point x="335" y="65"/>
      <point x="300" y="33"/>
      <point x="232" y="33" type="curve" smooth="yes"/>
      <point x="152" y="33"/>
      <point x="86" y="106"/>
      <point x="86" y="236" type="curve" smooth="yes"/>
      <point x="86.0" y="342.8415300546448"/>
      <point x="146.43795620437956" y="424.0"/>
      <point x="224" y="424" type="curve" smooth="yes"/>
      <point x="256.36538461538464" y="424.0"/>
      <point x="275" y="403"/>
      <point x="275" y="376" type="curve" smooth="yes"/>
      <point x="275" y="343" type="line" smooth="yes"/>
      <point x="275" y="315.6545454545454"/>
      <point x="291.1842105263158" y="296.0"/>
      <point x="316" y="296" type="curve" smooth="yes"/>
      <point x="341.2" y="296.0"/>
      <point x="358.0" y="314.0"/>
    </contour>
  </outline>
</glyph>
<glyph name="d" format="2">
  <advance width="486"/>
  <unicode hex="0064"/>
  <outline>
    <contour>
      <point x="428" y="647" type="line" smooth="yes"/>
      <point x="428" y="657"/>
      <point x="423" y="663"/>
      <point x="414" y="663" type="curve" smooth="yes"/>
      <point x="404" y="663"/>
      <point x="394" y="657"/>
      <point x="377" y="651" type="curve" smooth="yes"/>
      <point x="289" y="618" type="line" smooth="yes"/>
      <point x="276" y="614"/>
      <point x="267" y="608"/>
      <point x="267" y="603" type="curve" smooth="yes"/>
      <point x="267" y="600"/>
      <point x="274" y="598"/>
      <point x="285" y="598" type="curve" smooth="yes"/>
      <point x="320" y="598" type="line" smooth="yes"/>
      <point x="334" y="598"/>
      <point x="343" y="591"/>
      <point x="343" y="575" type="curve" smooth="yes"/>
      <point x="343" y="23" type="line" smooth="yes"/>
      <point x="343.0" y="7.0"/>
      <point x="349" y="0"/>
      <point x="363" y="0" type="curve" smooth="yes"/>
      <point x="478" y="0" type="line" smooth="yes"/>
      <point x="484.0" y="0.0"/>
      <point x="486.0" y="2"/>
      <point x="486" y="6" type="curve" smooth="yes"/>
      <point x="486.0" y="8"/>
      <point x="484" y="11"/>
      <point x="478" y="13" type="curve" smooth="yes"/>
      <point x="447" y="22" type="line" smooth="yes"/>
      <point x="434" y="26"/>
      <point x="428.0" y="32.0"/>
      <point x="428" y="47" type="curve" smooth="yes"/>
    </contour>
    <contour>
      <point x="369" y="86" type="line"/>
      <point x="329" y="48"/>
      <point x="290" y="36"/>
      <point x="253" y="36" type="curve" smooth="yes"/>
      <point x="162" y="36"/>
      <point x="107" y="114"/>
      <point x="107" y="231" type="curve" smooth="yes"/>
      <point x="107" y="347"/>
      <point x="169" y="418"/>
      <point x="244" y="418" type="curve" smooth="yes"/>
      <point x="307" y="418"/>
      <point x="339" y="397"/>
      <point x="371" y="345" type="curve"/>
      <point x="389" y="359" type="line"/>
      <point x="350" y="415"/>
      <point x="306" y="440"/>
      <point x="241" y="440" type="curve" smooth="yes"/>
      <point x="120" y="440"/>
      <point x="21" y="338"/>
      <point x="21" y="198" type="curve" smooth="yes"/>
      <point x="21" y="75"/>
      <point x="98" y="-10"/>
      <point x="194" y="-10" type="curve" smooth="yes"/>
      <point x="264" y="-10"/>
      <point x="317" y="14"/>
      <point x="377" y="77" type="curve"/>
    </contour>
  </outline>
</glyph>
<glyph name="e" format="2">
  <advance width="402"/>
  <unicode hex="0065"/>
  <anchor x="236" y="489" name="center"/>
  <outline>
    <contour>
      <point x="372" y="252"/>
      <point x="383" y="260"/>
      <point x="383" y="276" type="curve" smooth="yes"/>
      <point x="383" y="371"/>
      <point x="323" y="440"/>
      <point x="229" y="440" type="curve" smooth="yes"/>
      <point x="102" y="440"/>
      <point x="20" y="342"/>
      <point x="20" y="202" type="curve" smooth="yes"/>
      <point x="20" y="66"/>
      <point x="96" y="-10"/>
      <point x="215" y="-10" type="curve" smooth="yes"/>
      <point x="309" y="-10"/>
      <point x="380" y="65"/>
      <point x="380" y="125" type="curve" smooth="yes"/>
      <point x="380" y="126"/>
      <point x="379" y="128"/>
      <point x="377" y="128" type="curve" smooth="yes"/>
      <point x="375" y="128"/>
      <point x="373" y="127"/>
      <point x="372" y="125" type="curve" smooth="yes"/>
      <point x="356" y="67"/>
      <point x="307" y="39"/>
      <point x="242" y="39" type="curve" smooth="yes"/>
      <point x="156" y="39"/>
      <point x="90" y="110"/>
      <point x="90" y="234" type="curve" smooth="yes"/>
      <point x="90" y="354"/>
      <point x="134" y="419"/>
      <point x="201" y="419" type="curve" smooth="yes"/>
      <point x="266" y="419"/>
      <point x="307" y="371"/>
      <point x="307" y="292" type="curve" smooth="yes"/>
      <point x="307" y="277"/>
      <point x="296" y="268"/>
      <point x="281" y="268" type="curve" smooth="yes"/>
      <point x="67" y="268" type="line"/>
      <point x="67" y="252" type="line"/>
      <point x="357" y="252" type="line" smooth="yes"/>
    </contour>
  </outline>
</glyph>
<glyph name="f" format="2">
  <advance width="268"/>
  <unicode hex="0066"/>
  <outline>
    <contour>
      <point x="169" y="60" type="curve" smooth="yes"/>
      <point x="169" y="413" type="line"/>
      <point x="260" y="413" type="line" smooth="yes"/>
      <point x="266" y="413"/>
      <point x="270.0" y="416.0"/>
      <point x="270" y="421" type="curve" smooth="yes"/>
      <point x="270.0" y="428.0"/>
      <point x="265.7142857142857" y="430"/>
      <point x="260" y="430" type="curve" smooth="yes"/>
      <point x="170" y="430" type="line"/>
      <point x="170" y="440" type="line" smooth="yes"/>
      <point x="170" y="468.05194805194805"/>
      <point x="161" y="485"/>
      <point x="132" y="520" type="curve" smooth="yes"/>
      <point x="104.0" y="554.0"/>
      <point x="92.0" y="579.0"/>
      <point x="92" y="610" type="curve" smooth="yes"/>
      <point x="92.0" y="658.8372093023256"/>
      <point x="123.0" y="694.0"/>
      <point x="170" y="694" type="curve" smooth="yes"/>
      <point x="195.0" y="694.0"/>
      <point x="207" y="680.7368421052631"/>
      <point x="207" y="658" type="curve" smooth="yes"/>
      <point x="207" y="639" type="line" smooth="yes"/>
      <point x="207" y="615"/>
      <point x="223.54545454545453" y="599.0"/>
      <point x="246" y="599" type="curve" smooth="yes"/>
      <point x="271.29787234042556" y="599.0"/>
      <point x="287.0" y="615.8260869565217"/>
      <point x="287.0" y="642" type="curve" smooth="yes"/>
      <point x="287.0" y="686.8428571428572"/>
      <point x="252" y="715"/>
      <point x="194" y="715" type="curve" smooth="yes"/>
      <point x="110.0" y="715.0"/>
      <point x="56.0" y="653.8607594936709"/>
      <point x="56" y="577" type="curve" smooth="yes"/>
      <point x="56.0" y="499.2857142857143"/>
      <point x="102" y="466"/>
      <point x="102" y="417" type="curve" smooth="yes"/>
      <point x="102" y="413" type="line"/>
      <point x="113" y="430" type="line"/>
      <point x="27" y="430" type="line" smooth="yes"/>
      <point x="21.0" y="430.0"/>
      <point x="19.0" y="427"/>
      <point x="19" y="424" type="curve" smooth="yes"/>
      <point x="19.0" y="420"/>
      <point x="22" y="418"/>
      <point x="26" y="417" type="curve" smooth="yes"/>
      <point x="81" y="398" type="line" smooth="yes"/>
      <point x="92.31654043507923" y="394.09064966788173"/>
      <point x="98" y="387.3636363636364"/>
      <point x="98" y="372" type="curve" smooth="yes"/>
      <point x="98" y="57" type="line" smooth="yes"/>
      <point x="98" y="37"/>
      <point x="90" y="26"/>
      <point x="79" y="24" type="curve" smooth="yes"/>
      <point x="35" y="15" type="line" smooth="yes"/>
      <point x="27" y="13"/>
      <point x="25" y="12"/>
      <point x="25" y="8" type="curve" smooth="yes"/>
      <point x="25" y="3"/>
      <point x="29" y="0"/>
      <point x="36" y="0" type="curve" smooth="yes"/>
      <point x="246" y="0" type="line" smooth="yes"/>
      <point x="254" y="0"/>
      <point x="257" y="2"/>
      <point x="257" y="7" type="curve" smooth="yes"/>
      <point x="257" y="12"/>
      <point x="255" y="14"/>
      <point x="247" y="16" type="curve" smooth="yes"/>
      <point x="194" y="27" type="line" smooth="yes"/>
      <point x="178" y="30"/>
      <point x="169" y="43"/>
    </contour>
  </outline>
</glyph>
<glyph name="g" format="2">
  <advance width="445"/>
  <unicode hex="0067"/>
  <outline>
    <contour>
      <point x="300" y="2" type="curve" smooth="yes"/>
      <point x="417.8112036862083" y="-19.964800687259167"/>
      <point x="447.0" y="-62.19469026548673"/>
      <point x="447" y="-115" type="curve" smooth="yes"/>
      <point x="447" y="-192"/>
      <point x="368" y="-247"/>
      <point x="231" y="-247" type="curve" smooth="yes"/>
      <point x="93" y="-247"/>
      <point x="27" y="-199"/>
      <point x="27" y="-136" type="curve" smooth="yes"/>
      <point x="27.0" y="-81.66355140186916"/>
      <point x="71.93910166534208" y="-32.00553621224163"/>
      <point x="182" y="-22" type="curve"/>
      <point x="182" y="-30" type="line"/>
      <point x="120.29113890912174" y="-36.275477399072365"/>
      <point x="89.0" y="-80.18181818181819"/>
      <point x="89" y="-122" type="curve" smooth="yes"/>
      <point x="89.0" y="-184.61467889908258"/>
      <point x="141.25925925925924" y="-227.0"/>
      <point x="255" y="-227" type="curve" smooth="yes"/>
      <point x="351" y="-227"/>
      <point x="392" y="-197"/>
      <point x="392" y="-150" type="curve" smooth="yes"/>
      <point x="392.0" y="-115.39024390243901"/>
      <point x="365.7083125086317" y="-85.93582875189898"/>
      <point x="266" y="-64" type="curve" smooth="yes"/>
      <point x="147.69344717349432" y="-38.93505236726574"/>
      <point x="113.0" y="-1.529411764705884"/>
      <point x="113" y="44" type="curve" smooth="yes"/>
      <point x="113.0" y="73.69620253164557"/>
      <point x="142.20908191703393" y="103.03801489400617"/>
      <point x="197" y="113" type="curve"/>
      <point x="201" y="106" type="line"/>
      <point x="184.18809684392988" y="102.04425808092468"/>
      <point x="169.0" y="90.76190476190476"/>
      <point x="169" y="74" type="curve" smooth="yes"/>
      <point x="169.0" y="44.54545454545455"/>
      <point x="194.6840743218391" y="21.057167503667216"/>
    </contour>
    <contour>
      <point x="408" y="276" type="curve" smooth="yes"/>
      <point x="408" y="179"/>
      <point x="331" y="103"/>
      <point x="226" y="103" type="curve" smooth="yes"/>
      <point x="109" y="103"/>
      <point x="38" y="177"/>
      <point x="38" y="262" type="curve" smooth="yes"/>
      <point x="38" y="364"/>
      <point x="111" y="440"/>
      <point x="229" y="440" type="curve" smooth="yes"/>
      <point x="345" y="440"/>
      <point x="408" y="361"/>
    </contour>
    <contour>
      <point x="306" y="412" type="line" smooth="yes"/>
      <point x="312" y="425" type="line" smooth="yes"/>
      <point x="335.7883568848001" y="476.5414399170669"/>
      <point x="369.2307692307692" y="502.0"/>
      <point x="405" y="502" type="curve" smooth="yes"/>
      <point x="436" y="502"/>
      <point x="463" y="479"/>
      <point x="463" y="446" type="curve" smooth="yes"/>
      <point x="463" y="426"/>
      <point x="448" y="410"/>
      <point x="433" y="410" type="curve" smooth="yes"/>
      <point x="416" y="410"/>
      <point x="409" y="417"/>
      <point x="400" y="431" type="curve" smooth="yes"/>
      <point x="391" y="445"/>
      <point x="377" y="454"/>
      <point x="363" y="454" type="curve" smooth="yes"/>
      <point x="345.0" y="454.0"/>
      <point x="331" y="440"/>
      <point x="315" y="406" type="curve"/>
    </contour>
    <contour>
      <point x="207" y="420" type="curve" smooth="yes"/>
      <point x="153" y="420"/>
      <point x="113" y="369"/>
      <point x="113" y="297" type="curve" smooth="yes"/>
      <point x="113" y="204"/>
      <point x="166" y="123"/>
      <point x="241" y="123" type="curve" smooth="yes"/>
      <point x="289" y="123"/>
      <point x="331" y="165"/>
      <point x="331" y="241" type="curve" smooth="yes"/>
      <point x="331" y="345"/>
      <point x="279" y="420"/>
    </contour>
  </outline>
</glyph>
<glyph name="h" format="2">
  <advance width="522"/>
  <unicode hex="0068"/>
  <outline>
    <contour>
      <point x="153" y="333" type="line" smooth="yes"/>
      <point x="145" y="342" type="line"/>
      <point x="176" y="371" type="line" smooth="yes"/>
      <point x="224" y="416"/>
      <point x="266" y="440"/>
      <point x="319" y="440" type="curve" smooth="yes"/>
      <point x="377" y="440"/>
      <point x="421" y="399"/>
      <point x="433" y="316" type="curve" smooth="yes"/>
      <point x="474" y="39" type="line" smooth="yes"/>
      <point x="475" y="31"/>
      <point x="481" y="24"/>
      <point x="492" y="20" type="curve" smooth="yes"/>
      <point x="520" y="12" type="line" smooth="yes"/>
      <point x="524" y="11"/>
      <point x="527" y="9"/>
      <point x="527" y="7" type="curve" smooth="yes"/>
      <point x="527" y="4"/>
      <point x="525" y="0"/>
      <point x="518" y="0" type="curve" smooth="yes"/>
      <point x="317" y="0" type="line" smooth="yes"/>
      <point x="312" y="0"/>
      <point x="307" y="3"/>
      <point x="307" y="7" type="curve" smooth="yes"/>
      <point x="307" y="11"/>
      <point x="312" y="15"/>
      <point x="319" y="16" type="curve" smooth="yes"/>
      <point x="361" y="22" type="line" smooth="yes"/>
      <point x="376" y="25"/>
      <point x="383" y="33"/>
      <point x="381" y="48" type="curve" smooth="yes"/>
      <point x="352" y="294" type="line" smooth="yes"/>
      <point x="343" y="367"/>
      <point x="312" y="398"/>
      <point x="265" y="398" type="curve" smooth="yes"/>
      <point x="233" y="398"/>
      <point x="207" y="382"/>
      <point x="177" y="355" type="curve" smooth="yes"/>
    </contour>
    <component base="l" xOffset="5"/>
  </outline>
</glyph>
<glyph name="l" format="2">
  <advance width="242"/>
  <unicode hex="006C"/>
  <outline>
    <contour>
      <point x="167" y="704" type="curve" smooth="yes"/>
      <point x="167" y="39" type="line" smooth="yes"/>
      <point x="167" y="31"/>
      <point x="172" y="24"/>
      <point x="181" y="22" type="curve" smooth="yes"/>
      <point x="219" y="12" type="line" smooth="yes"/>
      <point x="223" y="11"/>
      <point x="226" y="9"/>
      <point x="226" y="6" type="curve" smooth="yes"/>
      <point x="226" y="2"/>
      <point x="224.0" y="0.0"/>
      <point x="219" y="0" type="curve" smooth="yes"/>
      <point x="35" y="0" type="line" smooth="yes"/>
      <point x="29" y="0"/>
      <point x="25" y="2"/>
      <point x="25" y="6" type="curve" smooth="yes"/>
      <point x="25" y="10"/>
      <point x="27" y="12"/>
      <point x="32" y="13" type="curve" smooth="yes"/>
      <point x="74" y="23" type="line" smooth="yes"/>
      <point x="82" y="25"/>
      <point x="85" y="29"/>
      <point x="85" y="39" type="curve" smooth="yes"/>
      <point x="85" y="641" type="line" smooth="yes"/>
      <point x="85" y="649"/>
      <point x="80" y="654"/>
      <point x="73" y="654" type="curve" smooth="yes"/>
      <point x="29" y="654" type="line" smooth="yes"/>
      <point x="26.0" y="654.0"/>
      <point x="24" y="655"/>
      <point x="24" y="659" type="curve" smooth="yes"/>
      <point x="24" y="661"/>
      <point x="25" y="663"/>
      <point x="29" y="665" type="curve" smooth="yes"/>
      <point x="141" y="711" type="line" smooth="yes"/>
      <point x="148" y="714"/>
      <point x="152" y="715"/>
      <point x="157" y="715" type="curve" smooth="yes"/>
      <point x="163" y="715"/>
      <point x="167" y="710"/>
    </contour>
  </outline>
</glyph>
<glyph name="m" format="2">
  <advance width="777"/>
  <unicode hex="006D"/>
  <outline>
    <contour>
      <point x="74" y="23" type="curve" smooth="yes"/>
      <point x="34" y="13" type="line" smooth="yes"/>
      <point x="28" y="11"/>
      <point x="26" y="10"/>
      <point x="26" y="6" type="curve" smooth="yes"/>
      <point x="26" y="2"/>
      <point x="29" y="0"/>
      <point x="34" y="0" type="curve" smooth="yes"/>
      <point x="210" y="0" type="line" smooth="yes"/>
      <point x="214" y="0"/>
      <point x="216" y="2"/>
      <point x="216" y="5" type="curve" smooth="yes"/>
      <point x="216" y="10"/>
      <point x="213" y="11"/>
      <point x="206" y="13" type="curve" smooth="yes"/>
      <point x="171" y="22" type="line" smooth="yes"/>
      <point x="162" y="24"/>
      <point x="157" y="29"/>
      <point x="157" y="40" type="curve" smooth="yes"/>
      <point x="157" y="430" type="line" smooth="yes"/>
      <point x="157" y="436"/>
      <point x="153" y="440"/>
      <point x="148" y="440" type="curve" smooth="yes"/>
      <point x="142" y="440"/>
      <point x="137" y="439"/>
      <point x="129" y="435" type="curve" smooth="yes"/>
      <point x="35" y="392" type="line" smooth="yes"/>
      <point x="28" y="389"/>
      <point x="26" y="387"/>
      <point x="26" y="383" type="curve" smooth="yes"/>
      <point x="26" y="380"/>
      <point x="29" y="379"/>
      <point x="34" y="379" type="curve" smooth="yes"/>
      <point x="74" y="379" type="line" smooth="yes"/>
      <point x="81" y="379"/>
      <point x="86" y="375"/>
      <point x="86" y="364" type="curve" smooth="yes"/>
      <point x="86" y="40" type="line" smooth="yes"/>
      <point x="86" y="29"/>
      <point x="83" y="25"/>
    </contour>
    <contour>
      <point x="438" y="317" type="line" smooth="yes"/>
      <point x="438" y="390"/>
      <point x="382" y="440"/>
      <point x="313" y="440" type="curve" smooth="yes"/>
      <point x="247" y="440"/>
      <point x="190" y="406"/>
      <point x="146" y="354" type="curve"/>
      <point x="132" y="338" type="line"/>
      <point x="141" y="333" type="line"/>
      <point x="153" y="346" type="line" smooth="yes"/>
      <point x="187" y="383"/>
      <point x="230" y="398"/>
      <point x="266" y="398" type="curve" smooth="yes"/>
      <point x="329" y="398"/>
      <point x="367" y="356"/>
      <point x="367" y="278" type="curve" smooth="yes"/>
      <point x="367" y="42" type="line" smooth="yes"/>
      <point x="367" y="30"/>
      <point x="361" y="22"/>
      <point x="350" y="20" type="curve" smooth="yes"/>
      <point x="318" y="13" type="line" smooth="yes"/>
      <point x="312" y="12"/>
      <point x="309" y="10"/>
      <point x="309" y="6" type="curve" smooth="yes"/>
      <point x="309" y="2"/>
      <point x="312" y="0"/>
      <point x="316" y="0" type="curve" smooth="yes"/>
      <point x="487" y="0" type="line" smooth="yes"/>
      <point x="493" y="0"/>
      <point x="496" y="2"/>
      <point x="496" y="5" type="curve" smooth="yes"/>
      <point x="496" y="9"/>
      <point x="493" y="10"/>
      <point x="487" y="12" type="curve" smooth="yes"/>
      <point x="458" y="20" type="line" smooth="yes"/>
      <point x="446" y="23"/>
      <point x="438" y="30"/>
      <point x="438" y="42" type="curve" smooth="yes"/>
    </contour>
    <contour>
      <point x="422" y="336" type="line" smooth="yes"/>
      <point x="433" y="347" type="line" smooth="yes"/>
      <point x="468" y="382"/>
      <point x="502" y="396.0"/>
      <point x="535" y="396" type="curve" smooth="yes"/>
      <point x="578" y="396"/>
      <point x="605.7874646221355" y="369.5183678714216"/>
      <point x="616" y="308" type="curve" smooth="yes"/>
      <point x="658" y="55" type="line" smooth="yes"/>
      <point x="661" y="34"/>
      <point x="657" y="27"/>
      <point x="640" y="22" type="curve" smooth="yes"/>
      <point x="611" y="14" type="line" smooth="yes"/>
      <point x="605" y="12"/>
      <point x="601" y="9"/>
      <point x="601" y="6" type="curve" smooth="yes"/>
      <point x="601" y="2"/>
      <point x="605" y="0"/>
      <point x="610" y="0" type="curve" smooth="yes"/>
      <point x="767" y="0" type="line" smooth="yes"/>
      <point x="772" y="0"/>
      <point x="776" y="1"/>
      <point x="776" y="5" type="curve" smooth="yes"/>
      <point x="776" y="8"/>
      <point x="775" y="10"/>
      <point x="771" y="12" type="curve" smooth="yes"/>
      <point x="750" y="23" type="line" smooth="yes"/>
      <point x="742" y="27"/>
      <point x="738" y="33"/>
      <point x="735" y="51" type="curve" smooth="yes"/>
      <point x="689" y="319" type="line" smooth="yes"/>
      <point x="675.7930465377511" y="395.94485930179775"/>
      <point x="636.2666666666667" y="440.0"/>
      <point x="576" y="440" type="curve" smooth="yes"/>
      <point x="521.8322981366459" y="440.0"/>
      <point x="475.4528226616865" y="413.0094254943973"/>
      <point x="423" y="354" type="curve" smooth="yes"/>
      <point x="415" y="345" type="line"/>
    </contour>
  </outline>
</glyph>
<glyph name="n" format="2">
  <advance width="609"/>
  <unicode hex="006E"/>
  <outline>
    <contour>
      <point x="203.0" y="468" type="line" smooth="yes"/>
      <point x="203" y="474"/>
      <point x="199.07142857142858" y="480.0"/>
      <point x="192" y="480" type="curve" smooth="yes"/>
      <point x="187.09615384615384" y="480.0"/>
      <point x="183" y="478"/>
      <point x="175" y="475" type="curve" smooth="yes"/>
      <point x="44" y="426" type="line" smooth="yes"/>
      <point x="40" y="425"/>
      <point x="39.0" y="422"/>
      <point x="39" y="419" type="curve" smooth="yes"/>
      <point x="39.0" y="415"/>
      <point x="41" y="414"/>
      <point x="44" y="414" type="curve" smooth="yes"/>
      <point x="102" y="414.0" type="line" smooth="yes"/>
      <point x="110" y="414"/>
      <point x="115.0" y="409.0"/>
      <point x="115.0" y="400" type="curve" smooth="yes"/>
      <point x="115.0" y="42.0" type="line" smooth="yes"/>
      <point x="115" y="31"/>
      <point x="112" y="27"/>
      <point x="103" y="25" type="curve" smooth="yes"/>
      <point x="47" y="14" type="line" smooth="yes"/>
      <point x="42" y="13"/>
      <point x="40.0" y="11"/>
      <point x="40" y="6" type="curve" smooth="yes"/>
      <point x="40.0" y="1.8000000000000007"/>
      <point x="44" y="0"/>
      <point x="50" y="0" type="curve" smooth="yes"/>
      <point x="270" y="0" type="line" smooth="yes"/>
      <point x="274.6666666666667" y="0"/>
      <point x="277.0" y="2.1818181818181817"/>
      <point x="277" y="6" type="curve" smooth="yes"/>
      <point x="277.0" y="9.76923076923077"/>
      <point x="274" y="12"/>
      <point x="270" y="13" type="curve" smooth="yes"/>
      <point x="218" y="24" type="line" smooth="yes"/>
      <point x="208" y="26"/>
      <point x="203.0" y="33.0"/>
      <point x="203.0" y="42.0" type="curve" smooth="yes"/>
    </contour>
    <contour>
      <point x="174" y="364" type="line" smooth="yes"/>
      <point x="200" y="388" type="line" smooth="yes"/>
      <point x="234" y="419"/>
      <point x="267" y="434"/>
      <point x="305" y="434" type="curve" smooth="yes"/>
      <point x="360.3913043478261" y="434.0"/>
      <point x="400" y="401"/>
      <point x="409" y="323" type="curve" smooth="yes"/>
      <point x="440" y="52" type="line" smooth="yes"/>
      <point x="442" y="36"/>
      <point x="434.3429840676328" y="26.54224196607622"/>
      <point x="418" y="24" type="curve" smooth="yes"/>
      <point x="373" y="17" type="line" smooth="yes"/>
      <point x="366" y="16"/>
      <point x="360.0" y="12.5"/>
      <point x="360.0" y="8" type="curve" smooth="yes"/>
      <point x="360.0" y="2.909090909090909"/>
      <point x="365" y="0"/>
      <point x="371" y="0" type="curve" smooth="yes"/>
      <point x="587" y="0" type="line" smooth="yes"/>
      <point x="594.2" y="0"/>
      <point x="597.0" y="3.5"/>
      <point x="597.0" y="7" type="curve" smooth="yes"/>
      <point x="597.0" y="10.428571428571429"/>
      <point x="592.9182815318569" y="11.824515540442931"/>
      <point x="589" y="13" type="curve" smooth="yes"/>
      <point x="559" y="22" type="line" smooth="yes"/>
      <point x="547" y="26"/>
      <point x="541" y="33"/>
      <point x="540" y="42" type="curve" smooth="yes"/>
      <point x="496" y="346" type="line" smooth="yes"/>
      <point x="483" y="435"/>
      <point x="430" y="480"/>
      <point x="363" y="480" type="curve" smooth="yes"/>
      <point x="302.0" y="480.0"/>
      <point x="253" y="455"/>
      <point x="199" y="405" type="curve" smooth="yes"/>
      <point x="166" y="374" type="line"/>
    </contour>
  </outline>
</glyph>
<glyph name="o" format="2">
  <advance width="485"/>
  <unicode hex="006F"/>
  <outline>
    <contour>
      <point x="251" y="440" type="curve" smooth="yes"/>
      <point x="115" y="440"/>
      <point x="24" y="339"/>
      <point x="24" y="213" type="curve" smooth="yes"/>
      <point x="24" y="83"/>
      <point x="112" y="-10"/>
      <point x="232" y="-10" type="curve" smooth="yes"/>
      <point x="361" y="-10"/>
      <point x="461" y="81"/>
      <point x="461" y="213" type="curve" smooth="yes"/>
      <point x="461" y="345"/>
      <point x="372" y="440"/>
    </contour>
    <contour>
      <point x="311" y="419"/>
      <point x="372" y="312"/>
      <point x="372" y="176" type="curve" smooth="yes"/>
      <point x="372" y="75"/>
      <point x="329" y="13"/>
      <point x="262" y="13" type="curve" smooth="yes"/>
      <point x="176" y="13"/>
      <point x="112" y="113"/>
      <point x="112" y="240" type="curve" smooth="yes"/>
      <point x="112" y="347"/>
      <point x="158" y="419"/>
      <point x="224" y="419" type="curve" smooth="yes"/>
    </contour>
  </outline>
</glyph>
<glyph name="r" format="2">
  <advance width="348"/>
  <unicode hex="0072"/>
  <outline>
    <contour>
      <point x="141" y="212" type="line"/>
      <point x="141.0" y="356.0"/>
      <point x="190.203125" y="440.0"/>
      <point x="275" y="440" type="curve" smooth="yes"/>
      <point x="319.9577464788732" y="440.0"/>
      <point x="351.0" y="407.0"/>
      <point x="351" y="367" type="curve" smooth="yes"/>
      <point x="351.0" y="337"/>
      <point x="335.0" y="319.0"/>
      <point x="311" y="319" type="curve" smooth="yes"/>
      <point x="291.0" y="319.0"/>
      <point x="274.0" y="335"/>
      <point x="274" y="359" type="curve" smooth="yes"/>
      <point x="274.0" y="407.0"/>
      <point x="266.57142857142856" y="416.0"/>
      <point x="248" y="416" type="curve" smooth="yes"/>
      <point x="204.10588235294117" y="416.0"/>
      <point x="157.0" y="348.0"/>
      <point x="157" y="216" type="curve"/>
    </contour>
    <contour>
      <point x="157" y="432" type="curve" smooth="yes"/>
      <point x="157" y="46" type="line" smooth="yes"/>
      <point x="157.0" y="35.0"/>
      <point x="163" y="28"/>
      <point x="174" y="26" type="curve" smooth="yes"/>
      <point x="237" y="13" type="line" smooth="yes"/>
      <point x="242" y="12"/>
      <point x="246.0" y="10.0"/>
      <point x="246" y="6" type="curve" smooth="yes"/>
      <point x="246.0" y="2.0"/>
      <point x="244.0" y="0.0"/>
      <point x="238" y="0" type="curve" smooth="yes"/>
      <point x="35" y="0" type="line" smooth="yes"/>
      <point x="30" y="0"/>
      <point x="26.0" y="2.4000000000000004"/>
      <point x="26" y="6" type="curve" smooth="yes"/>
      <point x="26.0" y="10.444444444444445"/>
      <point x="27.962730253316636" y="12.3760146738423"/>
      <point x="35" y="14" type="curve" smooth="yes"/>
      <point x="74" y="23" type="line" smooth="yes"/>
      <point x="82" y="25"/>
      <point x="86.0" y="30.0"/>
      <point x="86" y="39" type="curve" smooth="yes"/>
      <point x="86" y="364" type="line" smooth="yes"/>
      <point x="86" y="375"/>
      <point x="83" y="379"/>
      <point x="73" y="379" type="curve" smooth="yes"/>
      <point x="32" y="379" type="line" smooth="yes"/>
      <point x="27.625" y="379"/>
      <point x="25.0" y="381.0"/>
      <point x="25" y="384" type="curve" smooth="yes"/>
      <point x="25.0" y="387.0"/>
      <point x="28.604429007993993" y="389.06869662866393"/>
      <point x="35" y="392" type="curve" smooth="yes"/>
      <point x="131" y="436" type="line" smooth="yes"/>
      <point x="138" y="439"/>
      <point x="143" y="440.0"/>
      <point x="148" y="440" type="curve" smooth="yes"/>
      <point x="152" y="440.0"/>
      <point x="157" y="437"/>
    </contour>
  </outline>
</glyph>
<glyph name="s" format="2">
  <advance width="446"/>
  <unicode hex="0073"/>
  <outline>
    <contour>
      <point x="237" y="31" type="curve" smooth="yes"/>
      <point x="187" y="31"/>
      <point x="144" y="54"/>
      <point x="106" y="114" type="curve" smooth="yes"/>
      <point x="91.74153936217351" y="135.38769095673973"/>
      <point x="82" y="143.0"/>
      <point x="70" y="143.0" type="curve" smooth="yes"/>
      <point x="58" y="143.0"/>
      <point x="52.0" y="136.0"/>
      <point x="52.0" y="124" type="curve" smooth="yes"/>
      <point x="52" y="114"/>
      <point x="55" y="103"/>
      <point x="60" y="89" type="curve" smooth="yes"/>
      <point x="90" y="2" type="line" smooth="yes"/>
      <point x="94" y="-11"/>
      <point x="100" y="-15"/>
      <point x="107" y="-15" type="curve" smooth="yes"/>
      <point x="119" y="-15"/>
      <point x="128" y="3"/>
      <point x="141" y="3" type="curve" smooth="yes"/>
      <point x="156" y="3"/>
      <point x="191" y="-15"/>
      <point x="235" y="-15" type="curve" smooth="yes"/>
      <point x="337.0" y="-15.0"/>
      <point x="400.0" y="46.62913907284768"/>
      <point x="400" y="126" type="curve" smooth="yes"/>
      <point x="400.0" y="191.48529411764707"/>
      <point x="360.3966779572213" y="247.90933075263513"/>
      <point x="255" y="272" type="curve" smooth="yes"/>
      <point x="160" y="294"/>
      <point x="123" y="323"/>
      <point x="123" y="370" type="curve" smooth="yes"/>
      <point x="123.0" y="406.6666666666667"/>
      <point x="155.0" y="436.0"/>
      <point x="209" y="436" type="curve" smooth="yes"/>
      <point x="252.0" y="436.0"/>
      <point x="294.68685106777184" y="411.4133565905411"/>
      <point x="345" y="345" type="curve" smooth="yes"/>
      <point x="356" y="330"/>
      <point x="368" y="320"/>
      <point x="383" y="320" type="curve" smooth="yes"/>
      <point x="397" y="320"/>
      <point x="403" y="328"/>
      <point x="403" y="340" type="curve" smooth="yes"/>
      <point x="403" y="346"/>
      <point x="399" y="357"/>
      <point x="395" y="366" type="curve" smooth="yes"/>
      <point x="352" y="461" type="line" smooth="yes"/>
      <point x="346" y="474"/>
      <point x="339" y="480"/>
      <point x="329" y="480" type="curve" smooth="yes"/>
      <point x="318" y="480"/>
      <point x="312" y="462"/>
      <point x="298" y="462" type="curve" smooth="yes"/>
      <point x="282.0967741935484" y="462.0"/>
      <point x="254" y="479"/>
      <point x="211" y="479" type="curve" smooth="yes"/>
      <point x="109.0" y="479"/>
      <point x="41.0" y="411"/>
      <point x="41" y="334" type="curve" smooth="yes"/>
      <point x="41" y="263"/>
      <point x="88" y="215"/>
      <point x="188" y="192" type="curve" smooth="yes"/>
      <point x="285" y="170"/>
      <point x="317" y="140"/>
      <point x="317" y="97" type="curve" smooth="yes"/>
      <point x="317" y="59"/>
      <point x="287" y="31"/>
    </contour>
  </outline>
</glyph>
<glyph name="t" format="2">
  <advance width="274"/>
  <unicode hex="0074"/>
  <outline>
    <contour>
      <point x="56" y="399" type="line" smooth="yes"/>
      <point x="64.89896562256982" y="396.0981633839446"/>
      <point x="70" y="388.7142857142857"/>
      <point x="70" y="375" type="curve" smooth="yes"/>
      <point x="70" y="89" type="line" smooth="yes"/>
      <point x="70.0" y="24"/>
      <point x="103.0" y="-10"/>
      <point x="164" y="-10" type="curve" smooth="yes"/>
      <point x="235" y="-10"/>
      <point x="265.0" y="30.6027397260274"/>
      <point x="265" y="68" type="curve" smooth="yes"/>
      <point x="265" y="71"/>
      <point x="264.0" y="73.0"/>
      <point x="262" y="73" type="curve" smooth="yes"/>
      <point x="260.3333333333333" y="73.0"/>
      <point x="258" y="72"/>
      <point x="257" y="69" type="curve" smooth="yes"/>
      <point x="248.3941140460871" y="43.182342138261376"/>
      <point x="227.0" y="30.0"/>
      <point x="199" y="30" type="curve" smooth="yes"/>
      <point x="163.0" y="30.0"/>
      <point x="141" y="53.38461538461539"/>
      <point x="141" y="106" type="curve" smooth="yes"/>
      <point x="141" y="511" type="line" smooth="yes"/>
      <point x="141.0" y="517.0"/>
      <point x="139" y="520"/>
      <point x="135" y="520" type="curve" smooth="yes"/>
      <point x="131" y="520"/>
      <point x="127" y="517"/>
      <point x="123" y="511" type="curve" smooth="yes"/>
      <point x="77" y="443" type="line" smooth="yes"/>
      <point x="72" y="436"/>
      <point x="64" y="430"/>
      <point x="53" y="430" type="curve" smooth="yes"/>
      <point x="9" y="430" type="line" smooth="yes"/>
      <point x="3.2727272727272725" y="430"/>
      <point x="0.0" y="428.0"/>
      <point x="0" y="423" type="curve" smooth="yes"/>
      <point x="0" y="419"/>
      <point x="2" y="417"/>
      <point x="10" y="414" type="curve" smooth="yes"/>
    </contour>
    <contour>
      <point x="87" y="413" type="line"/>
      <point x="87.0" y="413.0"/>
      <point x="224.30864197530863" y="413.0"/>
      <point x="253" y="413" type="curve" smooth="yes"/>
      <point x="258.8666666666667" y="413.0"/>
      <point x="264.0" y="415.0"/>
      <point x="264" y="422" type="curve" smooth="yes"/>
      <point x="264.0" y="427.0"/>
      <point x="259.7142857142857" y="430.0"/>
      <point x="254" y="430" type="curve" smooth="yes"/>
      <point x="235.54140127388536" y="430.0"/>
      <point x="93.0" y="430.0"/>
      <point x="93" y="430" type="curve"/>
    </contour>
  </outline>
</glyph>
<glyph name="u" format="2">
  <advance width="476"/>
  <unicode hex="0075"/>
  <outline>
    <contour>
      <point x="416" y="430" type="line" smooth="yes"/>
      <point x="416" y="437"/>
      <point x="413" y="441"/>
      <point x="408" y="441" type="curve" smooth="yes"/>
      <point x="403" y="441"/>
      <point x="400" y="440"/>
      <point x="392" y="436" type="curve" smooth="yes"/>
      <point x="292" y="391" type="line" smooth="yes"/>
      <point x="288" y="389"/>
      <point x="285" y="386"/>
      <point x="285" y="384" type="curve" smooth="yes"/>
      <point x="285" y="381"/>
      <point x="288" y="379"/>
      <point x="293" y="379" type="curve" smooth="yes"/>
      <point x="331" y="379" type="line" smooth="yes"/>
      <point x="340" y="379"/>
      <point x="345" y="374"/>
      <point x="345" y="363" type="curve" smooth="yes"/>
      <point x="345" y="19" type="line" smooth="yes"/>
      <point x="345" y="5"/>
      <point x="352" y="0"/>
      <point x="367" y="0" type="curve" smooth="yes"/>
      <point x="464" y="0" type="line" smooth="yes"/>
      <point x="471" y="0"/>
      <point x="473" y="3"/>
      <point x="473" y="7" type="curve" smooth="yes"/>
      <point x="473" y="10"/>
      <point x="470" y="11"/>
      <point x="466" y="12" type="curve" smooth="yes"/>
      <point x="431" y="22" type="line" smooth="yes"/>
      <point x="421" y="25"/>
      <point x="416" y="31"/>
      <point x="416" y="44" type="curve" smooth="yes"/>
    </contour>
    <contour>
      <point x="137" y="430" type="line" smooth="yes"/>
      <point x="137" y="436"/>
      <point x="134" y="440"/>
      <point x="129" y="440" type="curve" smooth="yes"/>
      <point x="123" y="440"/>
      <point x="119" y="438"/>
      <point x="111" y="435" type="curve" smooth="yes"/>
      <point x="10" y="390" type="line" smooth="yes"/>
      <point x="6" y="388"/>
      <point x="4" y="386"/>
      <point x="4" y="384" type="curve" smooth="yes"/>
      <point x="4" y="381"/>
      <point x="6" y="379"/>
      <point x="10" y="379" type="curve" smooth="yes"/>
      <point x="51" y="379" type="line" smooth="yes"/>
      <point x="61" y="379"/>
      <point x="66" y="375"/>
      <point x="66" y="365" type="curve" smooth="yes"/>
      <point x="66" y="122" type="line" smooth="yes"/>
      <point x="66" y="43.0"/>
      <point x="122.0" y="-6.0"/>
      <point x="191" y="-6" type="curve" smooth="yes"/>
      <point x="258.3953488372093" y="-6.0"/>
      <point x="310.40983481648203" y="25.54365843002718"/>
      <point x="359" y="90" type="curve"/>
      <point x="354" y="97" type="line"/>
      <point x="310.6615387649466" y="53.66153876494664"/>
      <point x="267.6969696969697" y="36.0"/>
      <point x="226" y="36" type="curve" smooth="yes"/>
      <point x="178.0" y="36.0"/>
      <point x="137" y="69.0"/>
      <point x="137" y="139" type="curve" smooth="yes"/>
    </contour>
  </outline>
</glyph>
<glyph name="y" format="2">
  <advance width="443"/>
  <unicode hex="0079"/>
  <anchor x="239" y="472" name="center"/>
  <outline>
    <contour>
      <point x="258" y="44" type="line"/>
      <point x="130" y="358" type="line" smooth="yes"/>
      <point x="126" y="369"/>
      <point x="124" y="377"/>
      <point x="124" y="385" type="curve" smooth="yes"/>
      <point x="124" y="394"/>
      <point x="131" y="401"/>
      <point x="139" y="404" type="curve" smooth="yes"/>
      <point x="176" y="416" type="line" smooth="yes"/>
      <point x="182" y="418"/>
      <point x="184" y="420"/>
      <point x="184" y="423" type="curve" smooth="yes"/>
      <point x="184" y="428"/>
      <point x="179" y="430"/>
      <point x="170" y="430" type="curve" smooth="yes"/>
      <point x="5" y="430" type="line" smooth="yes"/>
      <point x="-2.0" y="430.0"/>
      <point x="-6" y="426"/>
      <point x="-6" y="422" type="curve" smooth="yes"/>
      <point x="-6" y="418"/>
      <point x="-4" y="415"/>
      <point x="1" y="414" type="curve" smooth="yes"/>
      <point x="23.160857582468573" y="408.45978560438283"/>
      <point x="33.4931908861723" y="394.7676684756016"/>
      <point x="46" y="365" type="curve" smooth="yes"/>
      <point x="217" y="-42" type="line"/>
    </contour>
    <contour>
      <point x="171" y="-138" type="line" smooth="yes"/>
      <point x="150" y="-192"/>
      <point x="137.0" y="-201.0"/>
      <point x="117" y="-201" type="curve" smooth="yes"/>
      <point x="103" y="-201"/>
      <point x="96" y="-190"/>
      <point x="87" y="-174" type="curve" smooth="yes"/>
      <point x="78" y="-158" type="line" smooth="yes"/>
      <point x="64.71633920645668" y="-134.38460303370078"/>
      <point x="53.57446808510638" y="-126.0"/>
      <point x="37" y="-126" type="curve" smooth="yes"/>
      <point x="11.432432432432432" y="-126.0"/>
      <point x="-6.0" y="-144.28571428571428"/>
      <point x="-6" y="-174" type="curve" smooth="yes"/>
      <point x="-6.0" y="-214.57142857142856"/>
      <point x="26.000000000000007" y="-245.0"/>
      <point x="73" y="-245" type="curve" smooth="yes"/>
      <point x="121.92682926829268" y="-245.0"/>
      <point x="159.95208566308276" y="-220.5014776202881"/>
      <point x="191" y="-141" type="curve" smooth="yes"/>
      <point x="389" y="366" type="line" smooth="yes"/>
      <point x="397.6382444442363" y="388.1191410769081"/>
      <point x="411.67394540523156" y="401.16258495879634"/>
      <point x="432" y="410" type="curve" smooth="yes"/>
      <point x="439" y="413"/>
      <point x="446" y="417"/>
      <point x="446" y="423" type="curve" smooth="yes"/>
      <point x="446" y="427"/>
      <point x="443.0" y="430.0"/>
      <point x="435" y="430" type="curve" smooth="yes"/>
      <point x="313" y="430" type="line" smooth="yes"/>
      <point x="309" y="430"/>
      <point x="305" y="428"/>
      <point x="305" y="423" type="curve" smooth="yes"/>
      <point x="305" y="419"/>
      <point x="308" y="416"/>
      <point x="316" y="413" type="curve" smooth="yes"/>
      <point x="349" y="400" type="line" smooth="yes"/>
      <point x="359" y="396"/>
      <point x="363" y="390"/>
      <point x="363" y="378" type="curve" smooth="yes"/>
      <point x="363" y="364"/>
      <point x="359" y="354"/>
      <point x="355" y="343" type="curve" smooth="yes"/>
    </contour>
  </outline>
</glyph>
<glyph name="braceleft" format="2">
  <advance width="409"/>
  <unicode hex="007B"/>
  <outline>
    <contour>
      <point x="211" y="289" type="curve" smooth="yes"/>
      <point x="211" y="295"/>
      <point x="216" y="300"/>
      <point x="223" y="300" type="curve" smooth="yes"/>
      <point x="258" y="300"/>
      <point x="281" y="331"/>
      <point x="281" y="375" type="curve" smooth="yes"/>
      <point x="281" y="455"/>
      <point x="223" y="525"/>
      <point x="223" y="598" type="curve" smooth="yes"/>
      <point x="223" y="665"/>
      <point x="268" y="718"/>
      <point x="321" y="718" type="curve" smooth="yes"/>
      <point x="371" y="718" type="line" smooth="yes"/>
      <point x="385" y="718"/>
      <point x="394" y="725"/>
      <point x="394" y="737" type="curve" smooth="yes"/>
      <point x="394" y="747"/>
      <point x="387" y="755"/>
      <point x="373" y="755" type="curve" smooth="yes"/>
      <point x="321" y="755" type="line" smooth="yes"/>
      <point x="210" y="755"/>
      <point x="131" y="692"/>
      <point x="131" y="600" type="curve" smooth="yes"/>
      <point x="131" y="502"/>
      <point x="210" y="439"/>
      <point x="210" y="359" type="curve" smooth="yes"/>
      <point x="210.0" y="334.4583333333333"/>
      <point x="189.0" y="321.0"/>
      <point x="162" y="321" type="curve" smooth="yes"/>
      <point x="143.0" y="321.0"/>
      <point x="117.0" y="334.0"/>
      <point x="97" y="334" type="curve" smooth="yes"/>
      <point x="74" y="334"/>
      <point x="53" y="311"/>
      <point x="53" y="290" type="curve" smooth="yes"/>
      <point x="53" y="267"/>
      <point x="72" y="246"/>
      <point x="99" y="246" type="curve" smooth="yes"/>
      <point x="118.0" y="246.0"/>
      <point x="143.0" y="259.0"/>
      <point x="162" y="259" type="curve" smooth="yes"/>
      <point x="191.0" y="259.0"/>
      <point x="210.0" y="242.77358490566039"/>
      <point x="210" y="216" type="curve" smooth="yes"/>
      <point x="210" y="141"/>
      <point x="131" y="76"/>
      <point x="131" y="-30" type="curve" smooth="yes"/>
      <point x="131" y="-120"/>
      <point x="210" y="-185"/>
      <point x="321" y="-185" type="curve" smooth="yes"/>
      <point x="373" y="-185" type="line" smooth="yes"/>
      <point x="387" y="-185"/>
      <point x="394" y="-175"/>
      <point x="394" y="-167" type="curve" smooth="yes"/>
      <point x="394" y="-153"/>
      <point x="385" y="-148"/>
      <point x="371" y="-148" type="curve" smooth="yes"/>
      <point x="321" y="-148" type="line" smooth="yes"/>
      <point x="268" y="-148"/>
      <point x="223" y="-93"/>
      <point x="223" y="-28" type="curve" smooth="yes"/>
      <point x="223" y="50"/>
      <point x="281" y="124"/>
      <point x="281" y="201" type="curve" smooth="yes"/>
      <point x="281" y="244"/>
      <point x="261" y="279"/>
      <point x="223" y="279" type="curve" smooth="yes"/>
      <point x="216" y="279"/>
      <point x="211" y="282"/>
    </contour>
  </outline>
</glyph>
<glyph name="sterling" format="2">
  <advance width="532"/>
  <unicode hex="00A3"/>
  <outline>
    <contour>
      <point x="61" y="311" type="curve" smooth="yes"/>
      <point x="61" y="298"/>
      <point x="68" y="290"/>
      <point x="81" y="290" type="curve" smooth="yes"/>
      <point x="343" y="290" type="line" smooth="yes"/>
      <point x="356" y="290"/>
      <point x="365" y="298"/>
      <point x="365" y="311" type="curve" smooth="yes"/>
      <point x="365" y="323"/>
      <point x="356" y="332"/>
      <point x="343" y="332" type="curve" smooth="yes"/>
      <point x="82" y="332" type="line" smooth="yes"/>
      <point x="70" y="332"/>
      <point x="61" y="323"/>
    </contour>
    <contour>
      <point x="125" y="105.0" type="curve" smooth="yes"/>
      <point x="196.0" y="105.0"/>
      <point x="274" y="-15.0"/>
      <point x="380" y="-15.0" type="curve" smooth="yes"/>
      <point x="454" y="-15.0"/>
      <point x="499.0" y="30"/>
      <point x="499" y="114" type="curve" smooth="yes"/>
      <point x="499.0" y="130"/>
      <point x="490" y="139.0"/>
      <point x="478" y="139" type="curve" smooth="yes"/>
      <point x="463.0" y="139.0"/>
      <point x="457" y="128"/>
      <point x="453" y="116" type="curve" smooth="yes"/>
      <point x="443" y="86"/>
      <point x="426" y="69.0"/>
      <point x="380" y="69" type="curve" smooth="yes"/>
      <point x="313.0" y="69.0"/>
      <point x="222.0" y="156.0"/>
      <point x="131" y="156" type="curve" smooth="yes"/>
      <point x="68" y="156"/>
      <point x="25" y="118.0"/>
      <point x="25" y="66" type="curve" smooth="yes"/>
      <point x="25" y="18"/>
      <point x="64.0" y="-15.0"/>
      <point x="125" y="-15" type="curve" smooth="yes"/>
      <point x="181.0" y="-15.0"/>
      <point x="239" y="26.0"/>
      <point x="239" y="105" type="curve" smooth="yes"/>
      <point x="239.0" y="212"/>
      <point x="210.0" y="348"/>
      <point x="210" y="485" type="curve" smooth="yes"/>
      <point x="210.0" y="570"/>
      <point x="239" y="607.0"/>
      <point x="291" y="607" type="curve" smooth="yes"/>
      <point x="325" y="607"/>
      <point x="350" y="590"/>
      <point x="350" y="555" type="curve" smooth="yes"/>
      <point x="350" y="531" type="line" smooth="yes"/>
      <point x="350" y="496"/>
      <point x="376" y="472"/>
      <point x="405" y="472" type="curve" smooth="yes"/>
      <point x="440" y="472"/>
      <point x="462" y="494"/>
      <point x="462" y="532" type="curve" smooth="yes"/>
      <point x="462" y="600"/>
      <point x="414" y="651"/>
      <point x="310" y="651" type="curve" smooth="yes"/>
      <point x="198" y="651"/>
      <point x="116" y="577"/>
      <point x="116" y="454" type="curve" smooth="yes"/>
      <point x="116.0" y="325.0"/>
      <point x="195.0" y="200.0"/>
      <point x="195" y="105" type="curve" smooth="yes"/>
      <point x="195.0" y="50.0"/>
      <point x="165" y="22.0"/>
      <point x="129" y="22" type="curve" smooth="yes"/>
      <point x="91.0" y="22.0"/>
      <point x="70.0" y="42"/>
      <point x="70" y="66" type="curve" smooth="yes"/>
      <point x="70.0" y="88"/>
      <point x="87.0" y="105.0"/>
    </contour>
  </outline>
</glyph>
<glyph name="yen" format="2">
  <advance width="611"/>
  <unicode hex="00A5"/>
  <outline>
    <contour>
      <point x="558.0" y="185.0" type="curve" smooth="yes"/>
      <point x="583.0" y="185.0"/>
      <point x="594.0" y="198.0"/>
      <point x="594.0" y="212.0" type="curve" smooth="yes"/>
      <point x="594.0" y="231.0"/>
      <point x="582.0" y="244.0"/>
      <point x="558.0" y="245.0" type="curve" smooth="yes"/>
      <point x="527" y="246"/>
      <point x="490" y="230.0"/>
      <point x="299.0" y="230.0" type="curve" smooth="yes"/>
      <point x="119" y="230.0"/>
      <point x="87" y="242.0"/>
      <point x="56.0" y="242.0" type="curve" smooth="yes"/>
      <point x="32.0" y="242.0"/>
      <point x="20.0" y="225.0"/>
      <point x="20.0" y="208.0" type="curve" smooth="yes"/>
      <point x="20.0" y="194.0"/>
      <point x="31.0" y="181.0"/>
      <point x="54.0" y="181.0" type="curve" smooth="yes"/>
      <point x="81" y="181.0"/>
      <point x="116" y="193.0"/>
      <point x="299.0" y="193.0" type="curve" smooth="yes"/>
      <point x="489" y="193.0"/>
      <point x="527" y="185.0"/>
    </contour>
    <contour>
      <point x="236" y="342" type="line"/>
      <point x="111" y="344"/>
      <point x="83" y="353.0"/>
      <point x="56" y="353" type="curve" smooth="yes"/>
      <point x="32" y="353"/>
      <point x="20" y="336"/>
      <point x="20" y="319" type="curve" smooth="yes"/>
      <point x="20" y="305"/>
      <point x="31" y="292"/>
      <point x="54" y="292" type="curve" smooth="yes"/>
      <point x="79" y="292.0"/>
      <point x="110" y="302"/>
      <point x="257" y="304" type="curve"/>
    </contour>
    <contour>
      <point x="558" y="296" type="curve" smooth="yes"/>
      <point x="583" y="296"/>
      <point x="594" y="309"/>
      <point x="594" y="323" type="curve" smooth="yes"/>
      <point x="594" y="342"/>
      <point x="582" y="355"/>
      <point x="558" y="356" type="curve" smooth="yes"/>
      <point x="532" y="357"/>
      <point x="503" y="346"/>
      <point x="384" y="342" type="curve"/>
      <point x="366" y="304" type="line"/>
      <point x="499" y="302"/>
      <point x="531" y="296.0"/>
    </contour>
    <component base="Y" xScale="0.9135172474836407" yScale="0.9135172474836407" xOffset="10"/>
  </outline>
</glyph>
<glyph name="brokenbar" format="2">
  <advance width="357"/>
  <unicode hex="00A6"/>
  <outline>
    <contour>
      <point x="207" y="734" type="line" smooth="yes"/>
      <point x="207" y="750"/>
      <point x="199" y="765"/>
      <point x="180" y="766" type="curve" smooth="yes"/>
      <point x="161.0" y="767.0"/>
      <point x="150" y="751"/>
      <point x="150" y="734" type="curve" smooth="yes"/>
      <point x="150" y="347" type="line" smooth="yes"/>
      <point x="150.0" y="330.0"/>
      <point x="161.0" y="314.0"/>
      <point x="180" y="315" type="curve" smooth="yes"/>
      <point x="199" y="316"/>
      <point x="207.0" y="331.0"/>
      <point x="207" y="347" type="curve" smooth="yes"/>
    </contour>
    <contour>
      <point x="207" y="174" type="line" smooth="yes"/>
      <point x="207.0" y="190.0"/>
      <point x="199" y="205"/>
      <point x="180" y="206" type="curve" smooth="yes"/>
      <point x="161.0" y="207.0"/>
      <point x="150.0" y="191.0"/>
      <point x="150" y="174" type="curve" smooth="yes"/>
      <point x="150" y="-213" type="line" smooth="yes"/>
      <point x="150" y="-230"/>
      <point x="161.0" y="-246.0"/>
      <point x="180" y="-245" type="curve" smooth="yes"/>
      <point x="199" y="-244"/>
      <point x="207" y="-229"/>
      <point x="207" y="-213" type="curve" smooth="yes"/>
    </contour>
  </outline>
</glyph>
<glyph name="registered" format="2">
  <advance width="499"/>
  <unicode hex="00AE"/>
  <outline>
    <contour>
      <point x="249" y="213" type="curve" smooth="yes"/>
      <point x="122" y="213"/>
      <point x="33" y="308"/>
      <point x="33" y="435" type="curve" smooth="yes"/>
      <point x="33" y="560"/>
      <point x="124" y="649"/>
      <point x="249" y="649" type="curve" smooth="yes"/>
      <point x="374" y="649"/>
      <point x="466" y="560"/>
      <point x="466" y="435" type="curve" smooth="yes"/>
      <point x="466" y="308"/>
      <point x="376" y="213"/>
    </contour>
    <contour>
      <point x="249" y="243" type="curve" smooth="yes"/>
      <point x="359" y="243"/>
      <point x="436" y="325"/>
      <point x="436" y="435" type="curve" smooth="yes"/>
      <point x="436" y="542"/>
      <point x="356" y="619"/>
      <point x="249" y="619" type="curve" smooth="yes"/>
      <point x="141" y="619"/>
      <point x="63" y="543"/>
      <point x="63" y="435" type="curve" smooth="yes"/>
      <point x="63" y="325"/>
      <point x="139" y="243"/>
    </contour>
    <contour>
      <point x="352" y="475" type="curve" smooth="yes"/>
      <point x="352.0" y="526.0"/>
      <point x="303" y="559"/>
      <point x="237" y="559" type="curve" smooth="yes"/>
      <point x="153" y="559" type="line" smooth="yes"/>
      <point x="146.0" y="559.0"/>
      <point x="142" y="557"/>
      <point x="142" y="553" type="curve" smooth="yes"/>
      <point x="142" y="549"/>
      <point x="146" y="546"/>
      <point x="152" y="545" type="curve" smooth="yes"/>
      <point x="161" y="543" type="line" smooth="yes"/>
      <point x="169" y="541"/>
      <point x="174" y="535"/>
      <point x="174" y="527" type="curve" smooth="yes"/>
      <point x="174" y="346" type="line" smooth="yes"/>
      <point x="174" y="339"/>
      <point x="169" y="333"/>
      <point x="161" y="331" type="curve" smooth="yes"/>
      <point x="152" y="329" type="line" smooth="yes"/>
      <point x="146" y="328"/>
      <point x="142" y="325"/>
      <point x="142" y="321" type="curve" smooth="yes"/>
      <point x="142" y="316"/>
      <point x="146.0" y="314.0"/>
      <point x="153" y="314" type="curve" smooth="yes"/>
      <point x="239" y="314" type="line" smooth="yes"/>
      <point x="246" y="314"/>
      <point x="249" y="316"/>
      <point x="249" y="321" type="curve" smooth="yes"/>
      <point x="249" y="325"/>
      <point x="246" y="326"/>
      <point x="240" y="328" type="curve" smooth="yes"/>
      <point x="231" y="331" type="line" smooth="yes"/>
      <point x="225" y="333"/>
      <point x="221" y="337"/>
      <point x="221" y="346" type="curve" smooth="yes"/>
      <point x="221" y="535" type="line"/>
      <point x="235" y="535" type="line" smooth="yes"/>
      <point x="275" y="535"/>
      <point x="303.0" y="514.0"/>
      <point x="303" y="482" type="curve" smooth="yes"/>
      <point x="303.0" y="446.0"/>
      <point x="279.0967741935484" y="422.0"/>
      <point x="246" y="422" type="curve" smooth="yes"/>
      <point x="221" y="422"/>
      <point x="207" y="425"/>
      <point x="191" y="434" type="curve"/>
      <point x="187" y="413" type="line"/>
      <point x="205" y="403"/>
      <point x="219" y="399"/>
      <point x="247" y="399" type="curve" smooth="yes"/>
      <point x="310.0" y="399.0"/>
      <point x="352.0" y="430.0"/>
    </contour>
    <contour>
      <point x="248" y="409" type="line"/>
      <point x="293" y="347" type="line" smooth="yes"/>
      <point x="296" y="343"/>
      <point x="298" y="340"/>
      <point x="298" y="336" type="curve" smooth="yes"/>
      <point x="298" y="333"/>
      <point x="296" y="330"/>
      <point x="291" y="328" type="curve" smooth="yes"/>
      <point x="288" y="326"/>
      <point x="286" y="324"/>
      <point x="286" y="320" type="curve" smooth="yes"/>
      <point x="286" y="316"/>
      <point x="290" y="314"/>
      <point x="297" y="314" type="curve" smooth="yes"/>
      <point x="368" y="314" type="line" smooth="yes"/>
      <point x="376.0" y="314.0"/>
      <point x="379" y="317"/>
      <point x="379" y="321" type="curve" smooth="yes"/>
      <point x="379" y="325"/>
      <point x="376" y="326"/>
      <point x="372" y="328" type="curve" smooth="yes"/>
      <point x="361" y="332"/>
      <point x="355" y="337"/>
      <point x="348" y="345" type="curve" smooth="yes"/>
      <point x="295" y="413" type="line"/>
    </contour>
  </outline>
</glyph>
<glyph name="multiply" format="2">
  <advance width="433"/>
  <unicode hex="00D7"/>
  <outline>
    <contour>
      <point x="65" y="152" type="curve" smooth="yes"/>
      <point x="77" y="139"/>
      <point x="99" y="141"/>
      <point x="113" y="155" type="curve" smooth="yes"/>
      <point x="156.44495922423084" y="198.44495922423084"/>
      <point x="197.41628058182684" y="259.4162805818268"/>
      <point x="230" y="292" type="curve" smooth="yes"/>
      <point x="263.7659035875402" y="325.7659035875402"/>
      <point x="322.69876023422626" y="364.69876023422626"/>
      <point x="363" y="405" type="curve" smooth="yes"/>
      <point x="379" y="421"/>
      <point x="379" y="441"/>
      <point x="366" y="453" type="curve" smooth="yes"/>
      <point x="353" y="467"/>
      <point x="331" y="467"/>
      <point x="317" y="452" type="curve" smooth="yes"/>
      <point x="275.6198756380703" y="411.7088262791737"/>
      <point x="236.7588776283611" y="351.6698815758333"/>
      <point x="203" y="319" type="curve" smooth="yes"/>
      <point x="166.05428960869213" y="280.9676510677713"/>
      <point x="109.3778955574154" y="245.46450826401576"/>
      <point x="67" y="202" type="curve" smooth="yes"/>
      <point x="54" y="189"/>
      <point x="51" y="165"/>
    </contour>
    <contour>
      <point x="370" y="154" type="curve" smooth="yes"/>
      <point x="382" y="167"/>
      <point x="380" y="189"/>
      <point x="367" y="202" type="curve" smooth="yes"/>
      <point x="322.4993010075617" y="246.5006989924383"/>
      <point x="261.56148706763776" y="287.43851293236224"/>
      <point x="229" y="320" type="curve" smooth="yes"/>
      <point x="196.32331910883207" y="352.67668089116796"/>
      <point x="157.39046246214608" y="411.6095375378539"/>
      <point x="116" y="453" type="curve" smooth="yes"/>
      <point x="101" y="468"/>
      <point x="81" y="468"/>
      <point x="68" y="456" type="curve" smooth="yes"/>
      <point x="55" y="442"/>
      <point x="55" y="421"/>
      <point x="70" y="406" type="curve" smooth="yes"/>
      <point x="110.30123976577379" y="365.6987602342262"/>
      <point x="169.24211768002536" y="325.668918374169"/>
      <point x="203" y="293" type="curve" smooth="yes"/>
      <point x="239.93562240673782" y="254.9780357577699"/>
      <point x="276.6315527577216" y="199.4548176843881"/>
      <point x="319" y="156" type="curve" smooth="yes"/>
      <point x="332" y="144"/>
      <point x="356" y="141"/>
    </contour>
  </outline>
</glyph>
<glyph name="Oslash" format="2">
  <advance width="788"/>
  <unicode hex="00D8"/>
  <outline>
    <contour>
      <point x="727" y="646" type="curve" smooth="yes"/>
      <point x="741" y="659"/>
      <point x="745" y="673"/>
      <point x="745.0" y="686" type="curve" smooth="yes"/>
      <point x="745.0" y="701"/>
      <point x="732.0" y="716.0"/>
      <point x="715" y="716.0" type="curve" smooth="yes"/>
      <point x="700" y="716"/>
      <point x="688" y="708"/>
      <point x="677" y="694" type="curve" smooth="yes"/>
      <point x="598" y="596"/>
      <point x="443" y="421"/>
      <point x="396" y="374" type="curve" smooth="yes"/>
      <point x="347" y="324"/>
      <point x="181" y="155"/>
      <point x="69" y="45" type="curve" smooth="yes"/>
      <point x="56" y="33"/>
      <point x="52" y="22"/>
      <point x="52" y="12" type="curve" smooth="yes"/>
      <point x="52.0" y="-4.0"/>
      <point x="64" y="-19.0"/>
      <point x="84" y="-19.0" type="curve" smooth="yes"/>
      <point x="99" y="-19.0"/>
      <point x="112" y="-13"/>
      <point x="127" y="5" type="curve" smooth="yes"/>
      <point x="214" y="111"/>
      <point x="354" y="275"/>
      <point x="423" y="349" type="curve" smooth="yes"/>
      <point x="478" y="408"/>
      <point x="634" y="559"/>
    </contour>
    <component base="O"/>
  </outline>
</glyph>
<glyph name="dotlessi" format="2">
  <advance width="248"/>
  <unicode hex="0131"/>
  <outline>
    <contour>
      <point x="172" y="435" type="line" smooth="yes"/>
      <point x="172" y="441"/>
      <point x="168" y="446"/>
      <point x="162" y="446" type="curve" smooth="yes"/>
      <point x="157" y="446"/>
      <point x="153" y="445"/>
      <point x="146" y="442" type="curve" smooth="yes"/>
      <point x="34" y="396" type="line" smooth="yes"/>
      <point x="30" y="394"/>
      <point x="29" y="392"/>
      <point x="29" y="390" type="curve" smooth="yes"/>
      <point x="29" y="386"/>
      <point x="31.0" y="385.0"/>
      <point x="34" y="385" type="curve" smooth="yes"/>
      <point x="78" y="385" type="line" smooth="yes"/>
      <point x="85" y="385"/>
      <point x="90" y="380"/>
      <point x="90" y="372" type="curve" smooth="yes"/>
      <point x="90" y="39" type="line" smooth="yes"/>
      <point x="90" y="29"/>
      <point x="87" y="25"/>
      <point x="79" y="23" type="curve" smooth="yes"/>
      <point x="37" y="13" type="line" smooth="yes"/>
      <point x="32" y="12"/>
      <point x="30" y="10"/>
      <point x="30" y="6" type="curve" smooth="yes"/>
      <point x="30" y="2"/>
      <point x="34" y="0"/>
      <point x="40" y="0" type="curve" smooth="yes"/>
      <point x="224" y="0" type="line" smooth="yes"/>
      <point x="229.0" y="0.0"/>
      <point x="231" y="2"/>
      <point x="231" y="6" type="curve" smooth="yes"/>
      <point x="231" y="9"/>
      <point x="228" y="11"/>
      <point x="224" y="12" type="curve" smooth="yes"/>
      <point x="186" y="22" type="line" smooth="yes"/>
      <point x="177" y="24"/>
      <point x="172" y="31"/>
      <point x="172" y="39" type="curve" smooth="yes"/>
    </contour>
  </outline>
</glyph>
<glyph name="franc" format="2">
  <advance width="576"/>
  <unicode hex="20A3"/>
  <outline>
    <contour>
      <point x="320" y="39" type="curve" smooth="yes"/>
      <point x="281" y="48" type="line" smooth="yes"/>
      <point x="254" y="54"/>
      <point x="240" y="70"/>
      <point x="240" y="103" type="curve" smooth="yes"/>
      <point x="240" y="588" type="line"/>
      <point x="356" y="588" type="line" smooth="yes"/>
      <point x="397" y="588"/>
      <point x="439" y="565"/>
      <point x="475" y="516" type="curve" smooth="yes"/>
      <point x="492" y="494"/>
      <point x="501" y="487"/>
      <point x="515" y="487" type="curve" smooth="yes"/>
      <point x="525" y="487"/>
      <point x="534" y="497"/>
      <point x="528" y="517" type="curve" smooth="yes"/>
      <point x="494" y="637" type="line" smooth="yes"/>
      <point x="489" y="654"/>
      <point x="485" y="661"/>
      <point x="470" y="661" type="curve" smooth="yes"/>
      <point x="461" y="661"/>
      <point x="453" y="656"/>
      <point x="445" y="648" type="curve" smooth="yes"/>
      <point x="439" y="639"/>
      <point x="427" y="635"/>
      <point x="418" y="635" type="curve" smooth="yes"/>
      <point x="88" y="635" type="line" smooth="yes"/>
      <point x="69" y="635"/>
      <point x="59" y="629"/>
      <point x="59" y="616" type="curve" smooth="yes"/>
      <point x="59" y="603"/>
      <point x="70" y="599"/>
      <point x="89" y="594" type="curve" smooth="yes"/>
      <point x="117" y="587" type="line" smooth="yes"/>
      <point x="133" y="583"/>
      <point x="143.0" y="572.0"/>
      <point x="143" y="554" type="curve" smooth="yes"/>
      <point x="143" y="97" type="line" smooth="yes"/>
      <point x="143" y="69"/>
      <point x="132" y="56"/>
      <point x="108" y="48" type="curve" smooth="yes"/>
      <point x="90" y="44" type="line" smooth="yes"/>
      <point x="69" y="37"/>
      <point x="59" y="33"/>
      <point x="59" y="20" type="curve" smooth="yes"/>
      <point x="59" y="7"/>
      <point x="70" y="0"/>
      <point x="88" y="0" type="curve" smooth="yes"/>
      <point x="313" y="0" type="line" smooth="yes"/>
      <point x="329" y="0"/>
      <point x="343" y="7"/>
      <point x="343" y="20" type="curve" smooth="yes"/>
      <point x="343" y="28"/>
      <point x="335" y="35"/>
    </contour>
    <contour>
      <point x="51.0" y="186" type="curve" smooth="yes"/>
      <point x="51.0" y="173"/>
      <point x="58" y="165"/>
      <point x="71" y="165.0" type="curve" smooth="yes"/>
      <point x="341" y="165.0" type="line" smooth="yes"/>
      <point x="354.0" y="165.0"/>
      <point x="363" y="173"/>
      <point x="363" y="186" type="curve" smooth="yes"/>
      <point x="363" y="198"/>
      <point x="354.0" y="207.0"/>
      <point x="341" y="207" type="curve" smooth="yes"/>
      <point x="72" y="207" type="line" smooth="yes"/>
      <point x="60" y="207"/>
      <point x="51.0" y="198"/>
    </contour>
    <contour>
      <point x="208" y="357" type="line"/>
      <point x="202" y="311" type="line"/>
      <point x="352" y="311" type="line" smooth="yes"/>
      <point x="399" y="311"/>
      <point x="425" y="296"/>
      <point x="445" y="270" type="curve" smooth="yes"/>
      <point x="459" y="252"/>
      <point x="468.0" y="243.0"/>
      <point x="482" y="243.0" type="curve" smooth="yes"/>
      <point x="492.0" y="243.0"/>
      <point x="499.0" y="249"/>
      <point x="499" y="260" type="curve" smooth="yes"/>
      <point x="499.0" y="262.0"/>
      <point x="500" y="265"/>
      <point x="497" y="275" type="curve" smooth="yes"/>
      <point x="463" y="406" type="line" smooth="yes"/>
      <point x="460" y="418"/>
      <point x="454" y="425"/>
      <point x="442" y="425" type="curve" smooth="yes"/>
      <point x="432" y="425.0"/>
      <point x="426" y="418"/>
      <point x="421" y="407" type="curve" smooth="yes"/>
      <point x="403" y="369"/>
      <point x="381" y="357"/>
      <point x="350" y="357" type="curve" smooth="yes"/>
    </contour>
  </outline>
</glyph>
<glyph name="cedi" format="2">
  <advance width="561"/>
  <unicode hex="20B5"/>
  <outline>
    <contour>
      <point x="295" y="-34" type="curve" smooth="yes"/>
      <point x="295" y="-59"/>
      <point x="308" y="-70"/>
      <point x="322" y="-70" type="curve" smooth="yes"/>
      <point x="341" y="-70"/>
      <point x="354" y="-58"/>
      <point x="355" y="-34" type="curve" smooth="yes"/>
      <point x="355.99990706847484" y="9.99591101289316"/>
      <point x="343.0" y="63.0"/>
      <point x="343" y="335" type="curve" smooth="yes"/>
      <point x="343.0" y="581.0"/>
      <point x="352.0" y="626.0"/>
      <point x="352" y="668" type="curve" smooth="yes"/>
      <point x="352" y="692"/>
      <point x="337" y="704"/>
      <point x="322" y="704" type="curve" smooth="yes"/>
      <point x="306" y="704"/>
      <point x="291" y="693"/>
      <point x="291" y="670" type="curve" smooth="yes"/>
      <point x="291.0" y="633.0"/>
      <point x="300.0" y="585.0"/>
      <point x="300" y="335" type="curve" smooth="yes"/>
      <point x="300.0" y="65.0"/>
      <point x="295.0" y="10.0"/>
    </contour>
    <component base="C" xScale="0.873094454912691" yScale="0.873094454912691" xOffset="-2" yOffset="13"/>
  </outline>
</glyph>
<glyph name="cedillacomb" format="2">
  <anchor x="176" y="23" name="center"/>
  <outline>
    <contour>
      <point x="184" y="8" type="line"/>
      <point x="135" y="-95.0" type="line" smooth="yes"/>
      <point x="131" y="-104"/>
      <point x="143" y="-111"/>
      <point x="151" y="-111" type="curve" smooth="yes"/>
      <point x="158" y="-111.0"/>
      <point x="164" y="-106.0"/>
      <point x="176.0" y="-106" type="curve" smooth="yes"/>
      <point x="201.0" y="-106.0"/>
      <point x="216.0" y="-122"/>
      <point x="216" y="-157.0" type="curve" smooth="yes"/>
      <point x="216.0" y="-190"/>
      <point x="198.0" y="-208.0"/>
      <point x="172" y="-208" type="curve" smooth="yes"/>
      <point x="151" y="-208.0"/>
      <point x="139" y="-202"/>
      <point x="139" y="-194" type="curve" smooth="yes"/>
      <point x="139" y="-187.0" type="line" smooth="yes"/>
      <point x="139.0" y="-159.0"/>
      <point x="124.0" y="-141.0"/>
      <point x="105" y="-141.0" type="curve" smooth="yes"/>
      <point x="87" y="-141.0"/>
      <point x="71" y="-156"/>
      <point x="71" y="-176" type="curve" smooth="yes"/>
      <point x="71.0" y="-216"/>
      <point x="112" y="-245.0"/>
      <point x="162" y="-245.0" type="curve" smooth="yes"/>
      <point x="228.0" y="-245.0"/>
      <point x="277.0" y="-210"/>
      <point x="277" y="-157" type="curve" smooth="yes"/>
      <point x="277.0" y="-107"/>
      <point x="241.0" y="-79.0"/>
      <point x="188" y="-79" type="curve" smooth="yes"/>
      <point x="172" y="-79.0"/>
      <point x="160" y="-81"/>
      <point x="151" y="-95.0" type="curve"/>
      <point x="172" y="-90" type="line"/>
      <point x="221" y="9" type="line"/>
    </contour>
  </outline>
</glyph>
<glyph name="dotaccentcomb" format="2">
  <outline>
    <contour>
      <point x="110.0" y="531" type="curve" smooth="yes"/>
      <point x="143" y="531"/>
      <point x="168" y="557"/>
      <point x="168" y="589" type="curve" smooth="yes"/>
      <point x="168" y="621"/>
      <point x="143" y="646"/>
      <point x="110.0" y="646" type="curve" smooth="yes"/>
      <point x="78" y="646"/>
      <point x="53" y="621"/>
      <point x="53" y="589" type="curve" smooth="yes"/>
      <point x="53" y="557"/>
      <point x="78" y="531"/>
    </contour>
  </outline>
</glyph>
